<?xml version="1.0" encoding="utf-8"?>
<!-- Generator: Adobe Illustrator 28.0.0, SVG Export Plug-In . SVG Version: 6.00 Build 0)  -->
<svg version="1.1" id="Layer_1" xmlns="http://www.w3.org/2000/svg" xmlns:xlink="http://www.w3.org/1999/xlink" x="0px" y="0px"
	 viewBox="0 0 350 350" style="enable-background:new 0 0 350 350;" xml:space="preserve">
<style type="text/css">
	.st0{fill:#005D93;}
	.st1{fill:none;stroke:url(#SVGID_1_);stroke-width:4.9855;stroke-linecap:round;stroke-miterlimit:10;}
	
		.st2{fill:none;stroke:url(#SVGID_00000021112490825591115810000011984176061756863642_);stroke-width:1.1079;stroke-linecap:round;stroke-miterlimit:10;}
	
		.st3{fill:none;stroke:url(#SVGID_00000134968791318336257250000014326573936998502017_);stroke-width:1.1079;stroke-linecap:round;stroke-miterlimit:10;}
	
		.st4{fill:none;stroke:url(#SVGID_00000046299916780092539030000012133906980831402397_);stroke-width:1.1079;stroke-linecap:round;stroke-miterlimit:10;}
	
		.st5{fill:none;stroke:url(#SVGID_00000167363773737084905040000015609381730160514479_);stroke-width:1.1079;stroke-linecap:round;stroke-miterlimit:10;}
	
		.st6{fill:none;stroke:url(#SVGID_00000162346079554038544610000003450346209610025887_);stroke-width:1.1079;stroke-linecap:round;stroke-miterlimit:10;}
	
		.st7{fill:none;stroke:url(#SVGID_00000168104430201305442750000004605258319657320337_);stroke-width:1.1079;stroke-linecap:round;stroke-miterlimit:10;}
	
		.st8{fill:none;stroke:url(#SVGID_00000050650535332910817510000009700704712552036239_);stroke-width:1.1079;stroke-linecap:round;stroke-miterlimit:10;}
	
		.st9{fill:none;stroke:url(#SVGID_00000006672883010046788940000009692351569505485451_);stroke-width:1.1079;stroke-linecap:round;stroke-miterlimit:10;}
	
		.st10{fill:none;stroke:url(#SVGID_00000052796808452886369810000008198962277146527405_);stroke-width:1.1079;stroke-linecap:round;stroke-miterlimit:10;}
	
		.st11{fill:none;stroke:url(#SVGID_00000155834601337988155840000002536315443763322528_);stroke-width:1.1079;stroke-linecap:round;stroke-miterlimit:10;}
	
		.st12{fill:none;stroke:url(#SVGID_00000146478459621519617760000011341463470922727347_);stroke-width:1.1079;stroke-linecap:round;stroke-miterlimit:10;}
	
		.st13{fill:none;stroke:url(#SVGID_00000000911290279635603170000017289923678614688693_);stroke-width:1.1079;stroke-linecap:round;stroke-miterlimit:10;}
	
		.st14{fill:none;stroke:url(#SVGID_00000110462607535020648770000013697588265495261882_);stroke-width:0.1843;stroke-linecap:round;stroke-miterlimit:10;}
	
		.st15{fill:none;stroke:url(#SVGID_00000147906133802090167740000016007534358912964538_);stroke-width:0.1843;stroke-linecap:round;stroke-miterlimit:10;}
	
		.st16{fill:none;stroke:url(#SVGID_00000032633693916312694460000001087668952303711110_);stroke-width:1.1079;stroke-linecap:round;stroke-miterlimit:10;}
	
		.st17{fill:none;stroke:url(#SVGID_00000083066509256609716770000012001586262038835619_);stroke-width:1.1079;stroke-linecap:round;stroke-miterlimit:10;}
	
		.st18{fill:none;stroke:url(#SVGID_00000155859194980106172110000015630022726919506048_);stroke-width:1.1079;stroke-linecap:round;stroke-miterlimit:10;}
	
		.st19{fill:none;stroke:url(#SVGID_00000010301872925124102250000008607195703096614301_);stroke-width:1.1079;stroke-linecap:round;stroke-miterlimit:10;}
	
		.st20{fill:none;stroke:url(#SVGID_00000008845787276828873620000001720566126336555703_);stroke-width:4.9855;stroke-linecap:round;stroke-miterlimit:10;}
	
		.st21{fill:none;stroke:url(#SVGID_00000074401344157883698300000003187122496448146819_);stroke-width:1.1079;stroke-linecap:round;stroke-miterlimit:10;}
	
		.st22{fill:none;stroke:url(#SVGID_00000021093669906746068380000018396660816194154164_);stroke-width:1.1079;stroke-linecap:round;stroke-miterlimit:10;}
	
		.st23{fill:none;stroke:url(#SVGID_00000144334734533090127600000013638362896261751185_);stroke-width:1.1079;stroke-linecap:round;stroke-miterlimit:10;}
	
		.st24{fill:none;stroke:url(#SVGID_00000017493567823199278970000015395306076823460481_);stroke-width:1.1079;stroke-linecap:round;stroke-miterlimit:10;}
	
		.st25{fill:none;stroke:url(#SVGID_00000129900087325136984360000009843097729488168893_);stroke-width:1.1079;stroke-linecap:round;stroke-miterlimit:10;}
	
		.st26{fill:none;stroke:url(#SVGID_00000132808228918126315440000013963386076579468184_);stroke-width:1.1079;stroke-linecap:round;stroke-miterlimit:10;}
	
		.st27{fill:none;stroke:url(#SVGID_00000177442573554660372740000004667829780406319528_);stroke-width:1.1079;stroke-linecap:round;stroke-miterlimit:10;}
	
		.st28{fill:none;stroke:url(#SVGID_00000167367037670695270050000006589374574890184638_);stroke-width:1.1079;stroke-linecap:round;stroke-miterlimit:10;}
	
		.st29{fill:none;stroke:url(#SVGID_00000065075287428170533920000008626612942941748623_);stroke-width:1.1079;stroke-linecap:round;stroke-miterlimit:10;}
	
		.st30{fill:none;stroke:url(#SVGID_00000170972987232785830070000002842003027782751397_);stroke-width:1.1079;stroke-linecap:round;stroke-miterlimit:10;}
	
		.st31{fill:none;stroke:url(#SVGID_00000096739925387820538060000017138952114179201670_);stroke-width:1.1079;stroke-linecap:round;stroke-miterlimit:10;}
	
		.st32{fill:none;stroke:url(#SVGID_00000093145124839835687500000016543911204090500742_);stroke-width:1.1079;stroke-linecap:round;stroke-miterlimit:10;}
	
		.st33{fill:none;stroke:url(#SVGID_00000005262592910084037280000010763312774765956224_);stroke-width:0.1843;stroke-linecap:round;stroke-miterlimit:10;}
	
		.st34{fill:none;stroke:url(#SVGID_00000093883173483993262260000008079257969708957356_);stroke-width:0.1843;stroke-linecap:round;stroke-miterlimit:10;}
	
		.st35{fill:none;stroke:url(#SVGID_00000068639659754778723860000003186262573741756844_);stroke-width:1.1079;stroke-linecap:round;stroke-miterlimit:10;}
	
		.st36{fill:none;stroke:url(#SVGID_00000110443030189164774420000006242678083009461670_);stroke-width:1.1079;stroke-linecap:round;stroke-miterlimit:10;}
	
		.st37{fill:none;stroke:url(#SVGID_00000106847618509905501170000016877965255893456572_);stroke-width:1.1079;stroke-linecap:round;stroke-miterlimit:10;}
	
		.st38{fill:none;stroke:url(#SVGID_00000183941621803691223760000005983493086100105618_);stroke-width:1.1079;stroke-linecap:round;stroke-miterlimit:10;}
	.st39{fill:#00FFFF;}
	.st40{fill:none;stroke:#FFFFFF;stroke-width:0.277;stroke-miterlimit:10;}
	.st41{fill:#FFFFFF;}
</style>
<g>
	<path class="st0" d="M37.56,256.41c-0.87-0.49-1.53-1.18-2-2.07s-0.69-1.93-0.69-3.11c0-1.18,0.23-2.21,0.69-3.1
		c0.46-0.89,1.13-1.58,2-2.06c0.87-0.49,1.88-0.73,3.05-0.73c0.77,0,1.5,0.12,2.19,0.35s1.26,0.56,1.71,0.98l-0.79,1.81
		c-0.52-0.39-1.02-0.67-1.51-0.85c-0.49-0.18-1.01-0.27-1.54-0.27c-1.03,0-1.83,0.33-2.38,0.99c-0.55,0.66-0.82,1.62-0.82,2.88
		c0,1.27,0.28,2.24,0.82,2.9c0.55,0.66,1.34,0.99,2.38,0.99c0.54,0,1.05-0.09,1.54-0.27c0.49-0.18,0.99-0.46,1.51-0.85l0.79,1.81
		c-0.44,0.42-1.01,0.75-1.71,0.98c-0.7,0.23-1.43,0.35-2.19,0.35C39.44,257.15,38.42,256.9,37.56,256.41z"/>
	<path class="st0" d="M56,257h-2.67l-1.47-3.83c-0.12-0.3-0.3-0.51-0.54-0.63c-0.24-0.12-0.55-0.18-0.91-0.18h-1.63V257h-2.49
		v-11.51h5.13c1.34,0,2.35,0.29,3.04,0.87c0.69,0.58,1.04,1.42,1.04,2.51c0,0.77-0.2,1.42-0.61,1.97c-0.4,0.55-0.98,0.94-1.74,1.18
		c0.68,0.14,1.17,0.61,1.47,1.41L56,257z M51.03,250.44c0.72,0,1.25-0.12,1.58-0.36c0.33-0.24,0.5-0.62,0.5-1.14
		c0-0.52-0.17-0.9-0.5-1.14c-0.33-0.24-0.86-0.36-1.58-0.36h-2.3v3.01H51.03z"/>
	<path class="st0" d="M65.26,254.45h-5.38l-1.1,2.55h-2.54l5.29-11.51h2.04L68.85,257h-2.49L65.26,254.45z M64.44,252.52l-1.86-4.32
		l-1.86,4.32H64.44z"/>
	<path class="st0" d="M69.84,245.49h7.76v1.99h-5.27v2.67h4.95v2h-4.95V257h-2.49V245.49z"/>
	<path class="st0" d="M82.14,247.54h-3.61v-2.05h9.77v2.05H84.7V257h-2.55V247.54z"/>
	<path class="st0" d="M89.65,245.49h2.52V257h-2.52V245.49z"/>
	<path class="st0" d="M104.46,245.49V257h-1.88l-5.74-7.34V257h-2.36v-11.51h1.86l5.74,7.33v-7.33H104.46z"/>
	<path class="st0" d="M116.65,250.65v5.64c-0.56,0.27-1.22,0.48-1.96,0.63c-0.75,0.15-1.52,0.23-2.3,0.23
		c-1.22,0-2.27-0.24-3.17-0.71c-0.9-0.47-1.58-1.15-2.06-2.04c-0.48-0.88-0.72-1.94-0.72-3.17c0-1.2,0.24-2.24,0.72-3.12
		c0.48-0.88,1.16-1.57,2.04-2.05c0.88-0.48,1.91-0.72,3.08-0.72c0.83,0,1.6,0.11,2.32,0.34c0.72,0.23,1.31,0.54,1.77,0.95
		l-0.81,1.81c-0.54-0.39-1.06-0.67-1.57-0.84c-0.51-0.17-1.06-0.26-1.65-0.26c-2.22,0-3.33,1.29-3.33,3.88
		c0,2.64,1.16,3.96,3.48,3.96c0.64,0,1.27-0.08,1.91-0.24v-2.54h-2.26v-1.76H116.65z"/>
	<path class="st0" d="M126.01,247.54h-3.61v-2.05h9.77v2.05h-3.61V257h-2.55V247.54z"/>
	<path class="st0" d="M135.16,256.43c-0.85-0.48-1.5-1.17-1.96-2.06c-0.46-0.89-0.69-1.94-0.69-3.14c0-1.2,0.23-2.24,0.69-3.12
		c0.46-0.88,1.11-1.57,1.96-2.05c0.85-0.48,1.84-0.72,2.98-0.72c1.14,0,2.13,0.24,2.98,0.72c0.84,0.48,1.49,1.16,1.94,2.05
		c0.45,0.88,0.68,1.92,0.68,3.12c0,1.2-0.23,2.24-0.68,3.14c-0.45,0.89-1.1,1.58-1.94,2.06c-0.84,0.48-1.83,0.72-2.98,0.72
		C137,257.15,136,256.91,135.16,256.43z M140.41,254.16c0.54-0.68,0.82-1.65,0.82-2.93s-0.27-2.24-0.82-2.91
		c-0.54-0.67-1.3-1-2.27-1s-1.73,0.33-2.27,1c-0.54,0.67-0.82,1.64-0.82,2.91c0,1.28,0.27,2.26,0.82,2.93
		c0.54,0.67,1.3,1.01,2.27,1.01S139.87,254.84,140.41,254.16z"/>
	<path class="st0" d="M157.14,245.49V257h-2.23v-6.29l-2.65,6.29h-1.63l-2.67-6.21V257h-2.22v-11.51h2l3.72,8.49l3.69-8.49H157.14z"
		/>
	<path class="st0" d="M161.77,256.43c-0.85-0.48-1.5-1.17-1.96-2.06c-0.46-0.89-0.69-1.94-0.69-3.14c0-1.2,0.23-2.24,0.69-3.12
		c0.46-0.88,1.11-1.57,1.96-2.05c0.85-0.48,1.84-0.72,2.98-0.72c1.14,0,2.13,0.24,2.98,0.72c0.84,0.48,1.49,1.16,1.94,2.05
		c0.45,0.88,0.68,1.92,0.68,3.12c0,1.2-0.23,2.24-0.68,3.14c-0.45,0.89-1.1,1.58-1.94,2.06c-0.84,0.48-1.83,0.72-2.98,0.72
		C163.61,257.15,162.62,256.91,161.77,256.43z M167.03,254.16c0.54-0.68,0.82-1.65,0.82-2.93s-0.27-2.24-0.82-2.91
		c-0.54-0.67-1.3-1-2.27-1s-1.73,0.33-2.27,1c-0.54,0.67-0.82,1.64-0.82,2.91c0,1.28,0.27,2.26,0.82,2.93
		c0.54,0.67,1.3,1.01,2.27,1.01S166.48,254.84,167.03,254.16z"/>
	<path class="st0" d="M182.04,257h-2.67l-1.47-3.83c-0.12-0.3-0.3-0.51-0.54-0.63c-0.24-0.12-0.55-0.18-0.91-0.18h-1.63V257h-2.49
		v-11.51h5.13c1.34,0,2.35,0.29,3.04,0.87c0.69,0.58,1.03,1.42,1.03,2.51c0,0.77-0.2,1.42-0.61,1.97c-0.4,0.55-0.98,0.94-1.74,1.18
		c0.68,0.14,1.17,0.61,1.47,1.41L182.04,257z M177.08,250.44c0.72,0,1.25-0.12,1.58-0.36c0.33-0.24,0.5-0.62,0.5-1.14
		c0-0.52-0.17-0.9-0.5-1.14c-0.33-0.24-0.86-0.36-1.58-0.36h-2.3v3.01H177.08z"/>
	<path class="st0" d="M193.49,257h-2.67l-1.47-3.83c-0.12-0.3-0.3-0.51-0.54-0.63c-0.24-0.12-0.55-0.18-0.91-0.18h-1.63V257h-2.49
		v-11.51h5.13c1.34,0,2.35,0.29,3.04,0.87c0.69,0.58,1.03,1.42,1.03,2.51c0,0.77-0.2,1.42-0.61,1.97c-0.4,0.55-0.98,0.94-1.74,1.18
		c0.68,0.14,1.17,0.61,1.47,1.41L193.49,257z M188.53,250.44c0.72,0,1.25-0.12,1.58-0.36c0.33-0.24,0.5-0.62,0.5-1.14
		c0-0.52-0.17-0.9-0.5-1.14c-0.33-0.24-0.86-0.36-1.58-0.36h-2.3v3.01H188.53z"/>
	<path class="st0" d="M197.44,256.43c-0.85-0.48-1.5-1.17-1.96-2.06c-0.46-0.89-0.69-1.94-0.69-3.14c0-1.2,0.23-2.24,0.69-3.12
		c0.46-0.88,1.11-1.57,1.96-2.05c0.85-0.48,1.84-0.72,2.98-0.72c1.14,0,2.13,0.24,2.98,0.72c0.84,0.48,1.49,1.16,1.94,2.05
		c0.45,0.88,0.68,1.92,0.68,3.12c0,1.2-0.23,2.24-0.68,3.14c-0.45,0.89-1.1,1.58-1.94,2.06c-0.84,0.48-1.83,0.72-2.98,0.72
		C199.28,257.15,198.29,256.91,197.44,256.43z M202.7,254.16c0.54-0.68,0.82-1.65,0.82-2.93s-0.27-2.24-0.82-2.91
		c-0.54-0.67-1.3-1-2.27-1s-1.73,0.33-2.27,1c-0.54,0.67-0.82,1.64-0.82,2.91c0,1.28,0.27,2.26,0.82,2.93
		c0.54,0.67,1.3,1.01,2.27,1.01S202.15,254.84,202.7,254.16z"/>
	<path class="st0" d="M224.42,245.49L220.33,257h-2.02l-2.68-7.62l-2.7,7.62h-2.02l-4.09-11.51h2.57l2.65,7.96l2.78-7.96h1.76
		l2.72,8.07l2.72-8.07H224.42z"/>
	<path class="st0" d="M227.35,254.4v1.67c0,0.64-0.11,1.21-0.33,1.72c-0.22,0.51-0.6,1.03-1.12,1.54l-0.95-0.74
		c0.53-0.55,0.86-1.08,0.99-1.58h-1.21v-2.6H227.35z"/>
	<path class="st0" d="M242.79,252.07c0.37,0.49,0.55,1.08,0.55,1.78c0,0.97-0.36,1.74-1.08,2.3c-0.72,0.57-1.7,0.85-2.94,0.85h-5.47
		v-11.51h5.3c1.2,0,2.14,0.27,2.84,0.8c0.7,0.53,1.04,1.26,1.04,2.19c0,0.6-0.16,1.13-0.48,1.58c-0.32,0.45-0.76,0.78-1.32,0.99
		C241.91,251.25,242.43,251.59,242.79,252.07z M236.31,250.18h2.43c0.65,0,1.13-0.11,1.45-0.33s0.48-0.56,0.48-1.03
		c0-0.47-0.16-0.82-0.48-1.05c-0.32-0.23-0.8-0.34-1.45-0.34h-2.43V250.18z M240.5,254.72c0.31-0.23,0.46-0.6,0.46-1.11
		c0-0.52-0.15-0.89-0.46-1.13c-0.31-0.24-0.8-0.36-1.48-0.36h-2.72v2.94h2.72C239.7,255.06,240.2,254.95,240.5,254.72z"/>
	<path class="st0" d="M245.1,245.49h2.52V257h-2.52V245.49z"/>
	<path class="st0" d="M252.59,247.54h-3.61v-2.05h9.77v2.05h-3.61V257h-2.55V247.54z"/>
	<path class="st0" d="M273.58,252.07c0.37,0.49,0.55,1.08,0.55,1.78c0,0.97-0.36,1.74-1.08,2.3c-0.72,0.57-1.7,0.85-2.94,0.85h-5.47
		v-11.51h5.3c1.2,0,2.14,0.27,2.84,0.8s1.04,1.26,1.04,2.19c0,0.6-0.16,1.13-0.48,1.58c-0.32,0.45-0.76,0.78-1.32,0.99
		C272.69,251.25,273.21,251.59,273.58,252.07z M267.09,250.18h2.43c0.65,0,1.13-0.11,1.45-0.33c0.32-0.22,0.48-0.56,0.48-1.03
		c0-0.47-0.16-0.82-0.48-1.05c-0.32-0.23-0.8-0.34-1.45-0.34h-2.43V250.18z M271.29,254.72c0.31-0.23,0.46-0.6,0.46-1.11
		c0-0.52-0.15-0.89-0.46-1.13c-0.31-0.24-0.8-0.36-1.48-0.36h-2.72v2.94h2.72C270.49,255.06,270.98,254.95,271.29,254.72z"/>
	<path class="st0" d="M281.03,252.54V257h-2.52v-4.48l-4.75-7.03h2.86l3.14,4.92l3.17-4.92h2.88L281.03,252.54z"/>
	<path class="st0" d="M299.6,252.07c0.37,0.49,0.55,1.08,0.55,1.78c0,0.97-0.36,1.74-1.08,2.3c-0.72,0.57-1.7,0.85-2.94,0.85h-5.47
		v-11.51h5.3c1.2,0,2.14,0.27,2.84,0.8c0.7,0.53,1.04,1.26,1.04,2.19c0,0.6-0.16,1.13-0.48,1.58c-0.32,0.45-0.76,0.78-1.32,0.99
		C298.71,251.25,299.23,251.59,299.6,252.07z M293.11,250.18h2.43c0.65,0,1.13-0.11,1.45-0.33s0.48-0.56,0.48-1.03
		c0-0.47-0.16-0.82-0.48-1.05c-0.32-0.23-0.8-0.34-1.45-0.34h-2.43V250.18z M297.31,254.72c0.31-0.23,0.46-0.6,0.46-1.11
		c0-0.52-0.15-0.89-0.46-1.13c-0.31-0.24-0.8-0.36-1.48-0.36h-2.72v2.94h2.72C296.51,255.06,297,254.95,297.31,254.72z"/>
	<path class="st0" d="M301.91,245.49h2.52V257h-2.52V245.49z"/>
	<path class="st0" d="M309.4,247.54h-3.61v-2.05h9.77v2.05h-3.61V257h-2.55V247.54z"/>
</g>
<g>
	<g>
		<g>
			<g>
				
					<linearGradient id="SVGID_1_" gradientUnits="userSpaceOnUse" x1="11217.7363" y1="-534.6395" x2="11404.1533" y2="-534.6395" gradientTransform="matrix(-1 0 0 -1 11524.249 -319.5923)">
					<stop  offset="0" style="stop-color:#DC0656"/>
					<stop  offset="1" style="stop-color:#DC0656"/>
				</linearGradient>
				<polyline class="st1" points="304.02,200.23 199.16,200.23 168.62,229.87 122.59,229.87 				"/>
				<g>
					
						<linearGradient id="SVGID_00000096741964983005013600000016540743175238889406_" gradientUnits="userSpaceOnUse" x1="11353.04" y1="-547.495" x2="11421.6543" y2="-547.495" gradientTransform="matrix(-1 0 0 -1 11524.249 -319.5923)">
						<stop  offset="0" style="stop-color:#AD7C23"/>
						<stop  offset="0.9512" style="stop-color:#AD7C23"/>
					</linearGradient>
					
						<polyline style="fill:none;stroke:url(#SVGID_00000096741964983005013600000016540743175238889406_);stroke-width:1.1079;stroke-linecap:round;stroke-miterlimit:10;" points="
						170.65,221.53 117.5,221.62 103.15,234.27 					"/>
				</g>
				
					<linearGradient id="SVGID_00000047768181159629987720000008689972290280165504_" gradientUnits="userSpaceOnUse" x1="11194.3164" y1="-536.1914" x2="11339.3623" y2="-536.1914" gradientTransform="matrix(-1 0 0 -1 11524.249 -319.5923)">
					<stop  offset="0" style="stop-color:#AD7C23"/>
					<stop  offset="0.9512" style="stop-color:#AD7C23"/>
				</linearGradient>
				
					<polyline style="fill:none;stroke:url(#SVGID_00000047768181159629987720000008689972290280165504_);stroke-width:1.1079;stroke-linecap:round;stroke-miterlimit:10;" points="
					185.44,224.9 202.5,208.3 329.38,208.3 				"/>
				
					<linearGradient id="SVGID_00000150794448375065795720000012831423882508471738_" gradientUnits="userSpaceOnUse" x1="11193.8047" y1="-543.7759" x2="11339.9668" y2="-543.7759" gradientTransform="matrix(-1 0 0 -1 11524.249 -319.5923)">
					<stop  offset="0" style="stop-color:#AD7C23"/>
					<stop  offset="0.9512" style="stop-color:#AD7C23"/>
				</linearGradient>
				
					<polyline style="fill:none;stroke:url(#SVGID_00000150794448375065795720000012831423882508471738_);stroke-width:1.1079;stroke-linecap:round;stroke-miterlimit:10;" points="
					184.84,233.63 205.34,214.79 329.89,214.74 				"/>
				
					<linearGradient id="SVGID_00000079452879835917339350000016404374863789794199_" gradientUnits="userSpaceOnUse" x1="11193.8115" y1="-540.7919" x2="11267.8281" y2="-540.7919" gradientTransform="matrix(-1 0 0 -1 11524.249 -319.5923)">
					<stop  offset="0" style="stop-color:#AD7C23"/>
					<stop  offset="0.9512" style="stop-color:#AD7C23"/>
				</linearGradient>
				
					<line style="fill:none;stroke:url(#SVGID_00000079452879835917339350000016404374863789794199_);stroke-width:1.1079;stroke-linecap:round;stroke-miterlimit:10;" x1="329.88" y1="221.2" x2="256.97" y2="221.2"/>
				<g>
					
						<linearGradient id="SVGID_00000101807958062399096040000016259807940459077765_" gradientUnits="userSpaceOnUse" x1="11353.041" y1="-533.0994" x2="11504.833" y2="-533.0994" gradientTransform="matrix(-1 0 0 -1 11524.249 -319.5923)">
						<stop  offset="0" style="stop-color:#AD7C23"/>
						<stop  offset="0.9512" style="stop-color:#AD7C23"/>
					</linearGradient>
					
						<polyline style="fill:none;stroke:url(#SVGID_00000101807958062399096040000016259807940459077765_);stroke-width:1.1079;stroke-linecap:round;stroke-miterlimit:10;" points="
						19.97,224.9 29.81,215.1 77.46,215.1 93.5,202.11 103.19,202.11 117.31,215.06 170.65,215.15 					"/>
				</g>
				<g>
					
						<linearGradient id="SVGID_00000001640067938958254020000009608632686976969633_" gradientUnits="userSpaceOnUse" x1="11353.041" y1="-528.3694" x2="11405.4316" y2="-528.3694" gradientTransform="matrix(-1 0 0 -1 11524.249 -319.5923)">
						<stop  offset="0" style="stop-color:#AD7C23"/>
						<stop  offset="0.9512" style="stop-color:#AD7C23"/>
					</linearGradient>
					
						<line style="fill:none;stroke:url(#SVGID_00000001640067938958254020000009608632686976969633_);stroke-width:1.1079;stroke-linecap:round;stroke-miterlimit:10;" x1="170.65" y1="208.83" x2="119.37" y2="208.72"/>
					
						<linearGradient id="SVGID_00000013888125183749395370000009115677446180637360_" gradientUnits="userSpaceOnUse" x1="11404.3242" y1="-521.7966" x2="11435.9844" y2="-521.7966" gradientTransform="matrix(-1 0 0 -1 11524.249 -319.5923)">
						<stop  offset="0" style="stop-color:#AD7C23"/>
						<stop  offset="0.9512" style="stop-color:#AD7C23"/>
					</linearGradient>
					
						<polyline style="fill:none;stroke:url(#SVGID_00000013888125183749395370000009115677446180637360_);stroke-width:1.1079;stroke-linecap:round;stroke-miterlimit:10;" points="
						119.37,208.72 105.49,195.69 88.82,195.94 					"/>
				</g>
				
					<linearGradient id="SVGID_00000020392065581082101120000010902078937467795853_" gradientUnits="userSpaceOnUse" x1="11338.2549" y1="-555.1675" x2="11343.7529" y2="-555.1675" gradientTransform="matrix(-1 0 0 -1 11524.249 -319.5923)">
					<stop  offset="0" style="stop-color:#AD7C23"/>
					<stop  offset="0.9512" style="stop-color:#AD7C23"/>
				</linearGradient>
				
					<circle style="fill:none;stroke:url(#SVGID_00000020392065581082101120000010902078937467795853_);stroke-width:1.1079;stroke-linecap:round;stroke-miterlimit:10;" cx="183.25" cy="235.58" r="2.2"/>
				
					<linearGradient id="SVGID_00000127040126739612287890000006932533441263157893_" gradientUnits="userSpaceOnUse" x1="11189.4219" y1="-527.8878" x2="11194.9199" y2="-527.8878" gradientTransform="matrix(-1 0 0 -1 11524.249 -319.5923)">
					<stop  offset="0" style="stop-color:#AD7C23"/>
					<stop  offset="0.9512" style="stop-color:#AD7C23"/>
				</linearGradient>
				
					<path style="fill:none;stroke:url(#SVGID_00000127040126739612287890000006932533441263157893_);stroke-width:1.1079;stroke-linecap:round;stroke-miterlimit:10;" d="
					M334.27,208.3c0,1.21-0.98,2.2-2.2,2.2s-2.2-0.98-2.2-2.2c0-1.21,0.98-2.2,2.2-2.2S334.27,207.08,334.27,208.3z"/>
				
					<linearGradient id="SVGID_00000023995432974779393060000006032185143495440287_" gradientUnits="userSpaceOnUse" x1="11266.7207" y1="-540.7919" x2="11272.2188" y2="-540.7919" gradientTransform="matrix(-1 0 0 -1 11524.249 -319.5923)">
					<stop  offset="0" style="stop-color:#AD7C23"/>
					<stop  offset="0.9512" style="stop-color:#AD7C23"/>
				</linearGradient>
				
					<path style="fill:none;stroke:url(#SVGID_00000023995432974779393060000006032185143495440287_);stroke-width:1.1079;stroke-linecap:round;stroke-miterlimit:10;" d="
					M256.97,221.2c0,1.21-0.98,2.2-2.2,2.2c-1.21,0-2.2-0.98-2.2-2.2s0.98-2.2,2.2-2.2C255.99,219,256.97,219.99,256.97,221.2z"/>
				
					<linearGradient id="SVGID_00000091736611563273095370000002187400644742236591_" gradientUnits="userSpaceOnUse" x1="11189.4219" y1="-540.7919" x2="11194.9199" y2="-540.7919" gradientTransform="matrix(-1 0 0 -1 11524.249 -319.5923)">
					<stop  offset="0" style="stop-color:#AD7C23"/>
					<stop  offset="0.9512" style="stop-color:#AD7C23"/>
				</linearGradient>
				
					<path style="fill:none;stroke:url(#SVGID_00000091736611563273095370000002187400644742236591_);stroke-width:1.1079;stroke-linecap:round;stroke-miterlimit:10;" d="
					M334.27,221.2c0,1.21-0.98,2.2-2.2,2.2s-2.2-0.98-2.2-2.2s0.98-2.2,2.2-2.2S334.27,219.99,334.27,221.2z"/>
				
					<linearGradient id="SVGID_00000124159969386207531010000000142332948239975871_" gradientUnits="userSpaceOnUse" x1="11189.4219" y1="-534.5065" x2="11194.9199" y2="-534.5065" gradientTransform="matrix(-1 0 0 -1 11524.249 -319.5923)">
					<stop  offset="0" style="stop-color:#AD7C23"/>
					<stop  offset="0.9512" style="stop-color:#AD7C23"/>
				</linearGradient>
				
					<circle style="fill:none;stroke:url(#SVGID_00000124159969386207531010000000142332948239975871_);stroke-width:1.1079;stroke-linecap:round;stroke-miterlimit:10;" cx="332.08" cy="214.91" r="2.2"/>
			</g>
			
				<linearGradient id="SVGID_00000135678821900805851930000012415526667324725424_" gradientUnits="userSpaceOnUse" x1="11316.8818" y1="-539.1672" x2="11316.8818" y2="-539.1672" gradientTransform="matrix(-1 0 0 -1 11524.249 -319.5923)">
				<stop  offset="0" style="stop-color:#AD7C23"/>
				<stop  offset="0.9512" style="stop-color:#AD7C23"/>
			</linearGradient>
			
				<path style="fill:none;stroke:url(#SVGID_00000135678821900805851930000012415526667324725424_);stroke-width:0.1843;stroke-linecap:round;stroke-miterlimit:10;" d="
				M207.37,219.57"/>
			
				<linearGradient id="SVGID_00000004525520018995514060000016302991361908066721_" gradientUnits="userSpaceOnUse" x1="11326.1865" y1="-517.1441" x2="11326.1865" y2="-517.1441" gradientTransform="matrix(-1 0 0 -1 11524.249 -319.5923)">
				<stop  offset="0" style="stop-color:#AD7C23"/>
				<stop  offset="0.9512" style="stop-color:#AD7C23"/>
			</linearGradient>
			
				<path style="fill:none;stroke:url(#SVGID_00000004525520018995514060000016302991361908066721_);stroke-width:0.1843;stroke-linecap:round;stroke-miterlimit:10;" d="
				M198.06,197.55"/>
		</g>
		
			<linearGradient id="SVGID_00000019652676138184425110000000719776841857160108_" gradientUnits="userSpaceOnUse" x1="11337.9756" y1="-546.1876" x2="11343.4736" y2="-546.1876" gradientTransform="matrix(-1 0 0 -1 11524.249 -319.5923)">
			<stop  offset="0" style="stop-color:#AD7C23"/>
			<stop  offset="0.9512" style="stop-color:#AD7C23"/>
		</linearGradient>
		
			<path style="fill:none;stroke:url(#SVGID_00000019652676138184425110000000719776841857160108_);stroke-width:1.1079;stroke-linecap:round;stroke-miterlimit:10;" d="
			M185.72,226.6c0,1.21-0.98,2.2-2.2,2.2c-1.21,0-2.2-0.98-2.2-2.2s0.98-2.2,2.2-2.2C184.74,224.4,185.72,225.38,185.72,226.6z"/>
		
			<linearGradient id="SVGID_00000070834817773553928570000013393680491620421780_" gradientUnits="userSpaceOnUse" x1="11419.8994" y1="-555.42" x2="11425.3975" y2="-555.42" gradientTransform="matrix(-1 0 0 -1 11524.249 -319.5923)">
			<stop  offset="0" style="stop-color:#AD7C23"/>
			<stop  offset="0.9512" style="stop-color:#AD7C23"/>
		</linearGradient>
		
			<circle style="fill:none;stroke:url(#SVGID_00000070834817773553928570000013393680491620421780_);stroke-width:1.1079;stroke-linecap:round;stroke-miterlimit:10;" cx="101.6" cy="235.83" r="2.2"/>
		
			<linearGradient id="SVGID_00000173858582551034145200000017546345687423726497_" gradientUnits="userSpaceOnUse" x1="11503.1592" y1="-546.1395" x2="11508.6572" y2="-546.1395" gradientTransform="matrix(-1 0 0 -1 11524.249 -319.5923)">
			<stop  offset="0" style="stop-color:#AD7C23"/>
			<stop  offset="0.9512" style="stop-color:#AD7C23"/>
		</linearGradient>
		
			<path style="fill:none;stroke:url(#SVGID_00000173858582551034145200000017546345687423726497_);stroke-width:1.1079;stroke-linecap:round;stroke-miterlimit:10;" d="
			M20.54,226.55c0,1.21-0.98,2.2-2.2,2.2s-2.2-0.98-2.2-2.2c0-1.21,0.98-2.2,2.2-2.2S20.54,225.33,20.54,226.55z"/>
		
			<linearGradient id="SVGID_00000042727643799746024410000003190727668761852329_" gradientUnits="userSpaceOnUse" x1="11434.9941" y1="-515.6053" x2="11440.4932" y2="-515.6053" gradientTransform="matrix(-1 0 0 -1 11524.249 -319.5923)">
			<stop  offset="0" style="stop-color:#AD7C23"/>
			<stop  offset="0.9512" style="stop-color:#AD7C23"/>
		</linearGradient>
		
			<circle style="fill:none;stroke:url(#SVGID_00000042727643799746024410000003190727668761852329_);stroke-width:1.1079;stroke-linecap:round;stroke-miterlimit:10;" cx="86.51" cy="196.01" r="2.2"/>
	</g>
	<g>
		<g>
			<g>
				
					<linearGradient id="SVGID_00000088839935887604637790000009594739971796767904_" gradientUnits="userSpaceOnUse" x1="43.9064" y1="116.0598" x2="230.324" y2="116.0598">
					<stop  offset="0" style="stop-color:#60A700"/>
					<stop  offset="1" style="stop-color:#60A700"/>
				</linearGradient>
				
					<polyline style="fill:none;stroke:url(#SVGID_00000088839935887604637790000009594739971796767904_);stroke-width:4.9855;stroke-linecap:round;stroke-miterlimit:10;" points="
					46.4,130.88 151.26,130.88 181.8,101.24 227.83,101.24 				"/>
				<g>
					
						<linearGradient id="SVGID_00000132785369533829743350000017538501562209935807_" gradientUnits="userSpaceOnUse" x1="179.2108" y1="103.2042" x2="247.8242" y2="103.2042">
						<stop  offset="0" style="stop-color:#AD7C23"/>
						<stop  offset="0.9512" style="stop-color:#AD7C23"/>
					</linearGradient>
					
						<polyline style="fill:none;stroke:url(#SVGID_00000132785369533829743350000017538501562209935807_);stroke-width:1.1079;stroke-linecap:round;stroke-miterlimit:10;" points="
						179.76,109.57 232.92,109.49 247.27,96.83 					"/>
				</g>
				
					<linearGradient id="SVGID_00000164512549945065502860000006536556709136741266_" gradientUnits="userSpaceOnUse" x1="20.4872" y1="114.5079" x2="165.5328" y2="114.5079">
					<stop  offset="0" style="stop-color:#AD7C23"/>
					<stop  offset="0.9512" style="stop-color:#AD7C23"/>
				</linearGradient>
				
					<polyline style="fill:none;stroke:url(#SVGID_00000164512549945065502860000006536556709136741266_);stroke-width:1.1079;stroke-linecap:round;stroke-miterlimit:10;" points="
					164.98,106.2 147.92,122.81 21.04,122.81 				"/>
				
					<linearGradient id="SVGID_00000002365384895862928860000018221616769983463821_" gradientUnits="userSpaceOnUse" x1="19.9751" y1="106.9234" x2="166.1373" y2="106.9234">
					<stop  offset="0" style="stop-color:#AD7C23"/>
					<stop  offset="0.9512" style="stop-color:#AD7C23"/>
				</linearGradient>
				
					<polyline style="fill:none;stroke:url(#SVGID_00000002365384895862928860000018221616769983463821_);stroke-width:1.1079;stroke-linecap:round;stroke-miterlimit:10;" points="
					165.58,97.48 145.08,116.32 20.53,116.37 				"/>
				
					<linearGradient id="SVGID_00000111166200926010307930000009324680280492148872_" gradientUnits="userSpaceOnUse" x1="19.9821" y1="109.9073" x2="93.9988" y2="109.9073">
					<stop  offset="0" style="stop-color:#AD7C23"/>
					<stop  offset="0.9512" style="stop-color:#AD7C23"/>
				</linearGradient>
				
					<line style="fill:none;stroke:url(#SVGID_00000111166200926010307930000009324680280492148872_);stroke-width:1.1079;stroke-linecap:round;stroke-miterlimit:10;" x1="20.54" y1="109.91" x2="93.44" y2="109.91"/>
				<g>
					
						<linearGradient id="SVGID_00000151507786474876138060000016133945986550561459_" gradientUnits="userSpaceOnUse" x1="179.2111" y1="117.5998" x2="331.0036" y2="117.5998">
						<stop  offset="0" style="stop-color:#AD7C23"/>
						<stop  offset="0.9512" style="stop-color:#AD7C23"/>
					</linearGradient>
					
						<polyline style="fill:none;stroke:url(#SVGID_00000151507786474876138060000016133945986550561459_);stroke-width:1.1079;stroke-linecap:round;stroke-miterlimit:10;" points="
						330.45,106.2 320.61,116 272.96,116 256.92,129 247.23,129 233.11,116.05 179.77,115.96 					"/>
				</g>
				<g>
					
						<linearGradient id="SVGID_00000096759500034103018520000011565300021613104292_" gradientUnits="userSpaceOnUse" x1="179.2111" y1="122.3298" x2="231.6021" y2="122.3298">
						<stop  offset="0" style="stop-color:#AD7C23"/>
						<stop  offset="0.9512" style="stop-color:#AD7C23"/>
					</linearGradient>
					
						<line style="fill:none;stroke:url(#SVGID_00000096759500034103018520000011565300021613104292_);stroke-width:1.1079;stroke-linecap:round;stroke-miterlimit:10;" x1="179.77" y1="122.28" x2="231.05" y2="122.38"/>
					
						<linearGradient id="SVGID_00000073699361295226511650000012449642691832783528_" gradientUnits="userSpaceOnUse" x1="230.4942" y1="128.9027" x2="262.1549" y2="128.9027">
						<stop  offset="0" style="stop-color:#AD7C23"/>
						<stop  offset="0.9512" style="stop-color:#AD7C23"/>
					</linearGradient>
					
						<polyline style="fill:none;stroke:url(#SVGID_00000073699361295226511650000012449642691832783528_);stroke-width:1.1079;stroke-linecap:round;stroke-miterlimit:10;" points="
						231.05,122.38 244.93,135.42 261.6,135.17 					"/>
				</g>
				
					<linearGradient id="SVGID_00000056424685385870241600000008438516110817431950_" gradientUnits="userSpaceOnUse" x1="164.4249" y1="95.5317" x2="169.9231" y2="95.5317">
					<stop  offset="0" style="stop-color:#AD7C23"/>
					<stop  offset="0.9512" style="stop-color:#AD7C23"/>
				</linearGradient>
				
					<circle style="fill:none;stroke:url(#SVGID_00000056424685385870241600000008438516110817431950_);stroke-width:1.1079;stroke-linecap:round;stroke-miterlimit:10;" cx="167.17" cy="95.53" r="2.2"/>
				
					<linearGradient id="SVGID_00000003804641366094563630000004178094025605853368_" gradientUnits="userSpaceOnUse" x1="15.5917" y1="122.8114" x2="21.09" y2="122.8114">
					<stop  offset="0" style="stop-color:#AD7C23"/>
					<stop  offset="0.9512" style="stop-color:#AD7C23"/>
				</linearGradient>
				
					<circle style="fill:none;stroke:url(#SVGID_00000003804641366094563630000004178094025605853368_);stroke-width:1.1079;stroke-linecap:round;stroke-miterlimit:10;" cx="18.34" cy="122.81" r="2.2"/>
				
					<linearGradient id="SVGID_00000085935790982752047800000005745097697525095058_" gradientUnits="userSpaceOnUse" x1="92.8909" y1="109.9073" x2="98.3892" y2="109.9073">
					<stop  offset="0" style="stop-color:#AD7C23"/>
					<stop  offset="0.9512" style="stop-color:#AD7C23"/>
				</linearGradient>
				
					<circle style="fill:none;stroke:url(#SVGID_00000085935790982752047800000005745097697525095058_);stroke-width:1.1079;stroke-linecap:round;stroke-miterlimit:10;" cx="95.64" cy="109.91" r="2.2"/>
				
					<linearGradient id="SVGID_00000094582327312360850710000000572536157640066494_" gradientUnits="userSpaceOnUse" x1="15.5917" y1="109.9073" x2="21.09" y2="109.9073">
					<stop  offset="0" style="stop-color:#AD7C23"/>
					<stop  offset="0.9512" style="stop-color:#AD7C23"/>
				</linearGradient>
				
					<circle style="fill:none;stroke:url(#SVGID_00000094582327312360850710000000572536157640066494_);stroke-width:1.1079;stroke-linecap:round;stroke-miterlimit:10;" cx="18.34" cy="109.91" r="2.2"/>
				
					<linearGradient id="SVGID_00000153707217927298158050000012954029619007424159_" gradientUnits="userSpaceOnUse" x1="15.5917" y1="116.1927" x2="21.0904" y2="116.1927">
					<stop  offset="0" style="stop-color:#AD7C23"/>
					<stop  offset="0.9512" style="stop-color:#AD7C23"/>
				</linearGradient>
				
					<circle style="fill:none;stroke:url(#SVGID_00000153707217927298158050000012954029619007424159_);stroke-width:1.1079;stroke-linecap:round;stroke-miterlimit:10;" cx="18.34" cy="116.19" r="2.2"/>
			</g>
			
				<linearGradient id="SVGID_00000019669538124478022560000012581113265266332296_" gradientUnits="userSpaceOnUse" x1="143.0525" y1="111.5321" x2="143.0525" y2="111.5321">
				<stop  offset="0" style="stop-color:#AD7C23"/>
				<stop  offset="0.9512" style="stop-color:#AD7C23"/>
			</linearGradient>
			
				<path style="fill:none;stroke:url(#SVGID_00000019669538124478022560000012581113265266332296_);stroke-width:0.1843;stroke-linecap:round;stroke-miterlimit:10;" d="
				M143.05,111.53"/>
			
				<linearGradient id="SVGID_00000057116073358413978050000002305085982461511557_" gradientUnits="userSpaceOnUse" x1="152.3564" y1="133.5552" x2="152.3564" y2="133.5552">
				<stop  offset="0" style="stop-color:#AD7C23"/>
				<stop  offset="0.9512" style="stop-color:#AD7C23"/>
			</linearGradient>
			
				<path style="fill:none;stroke:url(#SVGID_00000057116073358413978050000002305085982461511557_);stroke-width:0.1843;stroke-linecap:round;stroke-miterlimit:10;" d="
				M152.36,133.56"/>
		</g>
		
			<linearGradient id="SVGID_00000170251204566717429000000016340578344034102409_" gradientUnits="userSpaceOnUse" x1="164.1458" y1="104.5116" x2="169.6441" y2="104.5116">
			<stop  offset="0" style="stop-color:#AD7C23"/>
			<stop  offset="0.9512" style="stop-color:#AD7C23"/>
		</linearGradient>
		
			<circle style="fill:none;stroke:url(#SVGID_00000170251204566717429000000016340578344034102409_);stroke-width:1.1079;stroke-linecap:round;stroke-miterlimit:10;" cx="166.89" cy="104.51" r="2.2"/>
		
			<linearGradient id="SVGID_00000143612616255865877580000015343012287243208097_" gradientUnits="userSpaceOnUse" x1="246.07" y1="95.2792" x2="251.5682" y2="95.2792">
			<stop  offset="0" style="stop-color:#AD7C23"/>
			<stop  offset="0.9512" style="stop-color:#AD7C23"/>
		</linearGradient>
		
			<circle style="fill:none;stroke:url(#SVGID_00000143612616255865877580000015343012287243208097_);stroke-width:1.1079;stroke-linecap:round;stroke-miterlimit:10;" cx="248.82" cy="95.28" r="2.2"/>
		
			<linearGradient id="SVGID_00000075875425295860509540000018022687503707217060_" gradientUnits="userSpaceOnUse" x1="329.3298" y1="104.5597" x2="334.828" y2="104.5597">
			<stop  offset="0" style="stop-color:#AD7C23"/>
			<stop  offset="0.9512" style="stop-color:#AD7C23"/>
		</linearGradient>
		
			<circle style="fill:none;stroke:url(#SVGID_00000075875425295860509540000018022687503707217060_);stroke-width:1.1079;stroke-linecap:round;stroke-miterlimit:10;" cx="332.08" cy="104.56" r="2.2"/>
		
			<linearGradient id="SVGID_00000057856210403906115540000013210168745540855180_" gradientUnits="userSpaceOnUse" x1="261.1648" y1="135.0939" x2="266.663" y2="135.0939">
			<stop  offset="0" style="stop-color:#AD7C23"/>
			<stop  offset="0.9512" style="stop-color:#AD7C23"/>
		</linearGradient>
		
			<circle style="fill:none;stroke:url(#SVGID_00000057856210403906115540000013210168745540855180_);stroke-width:1.1079;stroke-linecap:round;stroke-miterlimit:10;" cx="263.91" cy="135.09" r="2.2"/>
	</g>
</g>
<g>
	<g>
		<path class="st0" d="M58.62,151.67H46.08v-11.24h36.55v11.24H70.16v38.88H58.62V151.67z"/>
		<path class="st0" d="M239.1,151.64h-12.53v-11.25h36.55v11.25h-12.48v38.91H239.1V151.64z"/>
		<path class="st0" d="M118.4,179.61v10.94H85.95V140.5h31.7v10.94H97.27v8.44h17.96v10.58H97.27v9.15H118.4z"/>
		<path class="st0" d="M205.12,169.1c1.21,2.12,1.81,4.69,1.81,7.7c0,4.39-1.32,7.78-3.95,10.17c-2.63,2.39-6.44,3.58-11.42,3.58
			h-20.17v-50.12h19.1c4.77,0,8.39,1.18,10.88,3.54c2.49,2.36,3.74,5.55,3.74,9.56c0,2.39-0.44,4.52-1.31,6.41
			c-0.87,1.89-2.11,3.38-3.71,4.47C202.23,165.42,203.91,166.98,205.12,169.1z M181.85,150.67v9.67h7.26c3.56,0,5.34-1.62,5.34-4.87
			c0-3.2-1.78-4.8-5.34-4.8H181.85z M196.26,175.22c0-3.39-1.85-5.08-5.55-5.08h-8.86v10.17h8.86
			C194.41,180.31,196.26,178.61,196.26,175.22z"/>
		<path class="st0" d="M210.84,140.39h11.96v50.16h-11.96V140.39z"/>
		<path class="st0" d="M305.68,179.3v11.25h-39.05v-8.88l21.99-30.02h-21.43v-11.25h37.56v8.88l-21.99,30.02H305.68z"/>
		<g>
			<path class="st0" d="M144.75,140.54L144.75,140.54c-12.73,0-23.05,10.32-23.05,23.05v26.96h13.04v-28.78
				c0-5.53,4.48-10.01,10.01-10.01c5.53,0,10.01,4.48,10.01,10.01v28.78h13.04v-26.96C167.79,150.86,157.47,140.54,144.75,140.54z"
				/>
			<g>
				<g>
					<path class="st39" d="M126.37,188.27c-0.34-0.52-0.51-1.17-0.51-1.94c0-0.53,0.1-1,0.3-1.41c0.2-0.41,0.46-0.73,0.8-0.95
						c0.34-0.23,0.71-0.34,1.11-0.34c0.74,0,1.27,0.24,1.59,0.72c0.32,0.48,0.48,1.12,0.48,1.92c0,0.53-0.09,1-0.28,1.42
						c-0.19,0.42-0.45,0.76-0.78,1c-0.33,0.24-0.7,0.36-1.11,0.36C127.24,189.06,126.71,188.79,126.37,188.27z M129.06,188.05
						c0.23-0.41,0.34-0.97,0.34-1.7c0-1.55-0.46-2.33-1.37-2.33c-0.49,0-0.84,0.19-1.08,0.59c-0.23,0.39-0.35,0.93-0.35,1.63
						c0,0.69,0.11,1.27,0.33,1.73c0.22,0.47,0.58,0.7,1.06,0.7C128.48,188.67,128.84,188.46,129.06,188.05z"/>
					<path class="st39" d="M127.76,175.91c-0.12,0.05-0.31,0.11-0.57,0.19c-0.26,0.07-0.48,0.12-0.65,0.14l-0.08-0.4
						c0.28-0.06,0.57-0.16,0.85-0.31c0.28-0.14,0.53-0.3,0.73-0.47h0.01l0.41,0.08V180l1.11,0.07v0.36h-2.93v-0.36l1.14-0.07V175.91
						z"/>
				</g>
				<path class="st39" d="M126.37,171.01c-0.34-0.52-0.51-1.17-0.51-1.94c0-0.53,0.1-1,0.3-1.41c0.2-0.41,0.46-0.73,0.8-0.95
					c0.34-0.23,0.71-0.34,1.11-0.34c0.74,0,1.27,0.24,1.59,0.72c0.32,0.48,0.48,1.12,0.48,1.92c0,0.53-0.09,1-0.28,1.42
					c-0.19,0.42-0.45,0.76-0.78,1c-0.33,0.24-0.7,0.36-1.11,0.36C127.24,171.79,126.7,171.53,126.37,171.01z M129.05,170.79
					c0.23-0.41,0.34-0.97,0.34-1.7c0-1.55-0.46-2.33-1.37-2.33c-0.49,0-0.84,0.19-1.08,0.59c-0.23,0.39-0.35,0.93-0.35,1.63
					c0,0.69,0.11,1.27,0.33,1.73c0.22,0.47,0.58,0.7,1.06,0.7C128.47,171.4,128.83,171.19,129.05,170.79z"/>
				<path class="st39" d="M129.34,154.61c-0.34-0.52-0.51-1.17-0.51-1.94c0-0.53,0.1-1,0.3-1.41c0.2-0.41,0.46-0.73,0.8-0.95
					c0.34-0.23,0.71-0.34,1.11-0.34c0.74,0,1.27,0.24,1.59,0.72c0.32,0.48,0.48,1.12,0.48,1.92c0,0.53-0.09,1-0.28,1.42
					c-0.19,0.42-0.45,0.76-0.78,1c-0.33,0.24-0.7,0.36-1.11,0.36C130.21,155.39,129.68,155.13,129.34,154.61z M132.02,154.39
					c0.23-0.41,0.34-0.97,0.34-1.7c0-1.55-0.46-2.33-1.37-2.33c-0.49,0-0.84,0.19-1.08,0.59c-0.23,0.39-0.35,0.93-0.35,1.63
					c0,0.69,0.11,1.27,0.33,1.73c0.22,0.47,0.58,0.7,1.06,0.7C131.44,155,131.8,154.8,132.02,154.39z"/>
				<path class="st39" d="M127.75,158.64c-0.12,0.05-0.31,0.11-0.57,0.19c-0.26,0.07-0.48,0.12-0.65,0.14l-0.08-0.4
					c0.28-0.06,0.57-0.16,0.85-0.31c0.28-0.14,0.53-0.3,0.73-0.47h0.01l0.41,0.08v4.85l1.11,0.07v0.36h-2.93v-0.36l1.14-0.07V158.64
					z"/>
			</g>
			<g>
				<path class="st39" d="M159.58,188.27c-0.34-0.52-0.51-1.17-0.51-1.94c0-0.53,0.1-1,0.3-1.41c0.2-0.41,0.46-0.73,0.8-0.95
					c0.34-0.23,0.71-0.34,1.11-0.34c0.74,0,1.27,0.24,1.59,0.72c0.32,0.48,0.48,1.12,0.48,1.92c0,0.53-0.09,1-0.28,1.42
					c-0.19,0.42-0.45,0.76-0.78,1c-0.33,0.24-0.7,0.36-1.11,0.36C160.45,189.06,159.92,188.79,159.58,188.27z M162.27,188.05
					c0.23-0.41,0.34-0.97,0.34-1.7c0-1.55-0.46-2.33-1.37-2.33c-0.49,0-0.84,0.19-1.08,0.59c-0.23,0.39-0.35,0.93-0.35,1.63
					c0,0.69,0.11,1.27,0.33,1.73c0.22,0.47,0.58,0.7,1.06,0.7C161.69,188.67,162.04,188.46,162.27,188.05z"/>
				<path class="st39" d="M160.97,175.91c-0.12,0.05-0.31,0.11-0.57,0.19c-0.26,0.07-0.48,0.12-0.65,0.14l-0.08-0.4
					c0.28-0.06,0.57-0.16,0.85-0.31c0.28-0.14,0.53-0.3,0.73-0.47h0.01l0.41,0.08V180l1.11,0.07v0.36h-2.93v-0.36l1.14-0.07V175.91z
					"/>
			</g>
			<path class="st39" d="M159.57,171.01c-0.34-0.52-0.51-1.17-0.51-1.94c0-0.53,0.1-1,0.3-1.41c0.2-0.41,0.46-0.73,0.8-0.95
				c0.34-0.23,0.71-0.34,1.11-0.34c0.74,0,1.27,0.24,1.59,0.72c0.32,0.48,0.48,1.12,0.48,1.92c0,0.53-0.09,1-0.28,1.42
				c-0.19,0.42-0.45,0.76-0.78,1c-0.33,0.24-0.7,0.36-1.11,0.36C160.44,171.79,159.91,171.53,159.57,171.01z M162.26,170.79
				c0.23-0.41,0.34-0.97,0.34-1.7c0-1.55-0.46-2.33-1.37-2.33c-0.49,0-0.84,0.19-1.08,0.59c-0.23,0.39-0.35,0.93-0.35,1.63
				c0,0.69,0.11,1.27,0.33,1.73s0.58,0.7,1.06,0.7C161.68,171.4,162.04,171.19,162.26,170.79z"/>
			<path class="st39" d="M156.28,154.61c-0.34-0.52-0.51-1.17-0.51-1.94c0-0.53,0.1-1,0.3-1.41c0.2-0.41,0.46-0.73,0.8-0.95
				c0.34-0.23,0.71-0.34,1.11-0.34c0.74,0,1.27,0.24,1.59,0.72c0.32,0.48,0.48,1.12,0.48,1.92c0,0.53-0.09,1-0.28,1.42
				c-0.19,0.42-0.45,0.76-0.78,1c-0.33,0.24-0.7,0.36-1.11,0.36C157.15,155.39,156.62,155.13,156.28,154.61z M158.96,154.39
				c0.23-0.41,0.34-0.97,0.34-1.7c0-1.55-0.46-2.33-1.37-2.33c-0.49,0-0.84,0.19-1.08,0.59c-0.23,0.39-0.35,0.93-0.35,1.63
				c0,0.69,0.11,1.27,0.33,1.73c0.22,0.47,0.58,0.7,1.06,0.7C158.38,155,158.74,154.8,158.96,154.39z"/>
			<path class="st39" d="M160.96,158.64c-0.12,0.05-0.31,0.11-0.57,0.19c-0.26,0.07-0.48,0.12-0.65,0.14l-0.08-0.4
				c0.28-0.06,0.57-0.16,0.85-0.31c0.28-0.14,0.53-0.3,0.73-0.47h0.01l0.41,0.08v4.85l1.11,0.07v0.36h-2.93v-0.36l1.14-0.07V158.64z
				"/>
			<path class="st39" d="M144.73,145.16c-0.12,0.05-0.31,0.11-0.57,0.19c-0.26,0.07-0.48,0.12-0.65,0.14l-0.08-0.4
				c0.28-0.06,0.57-0.16,0.85-0.31c0.28-0.14,0.53-0.3,0.73-0.47h0.01l0.41,0.08v4.85l1.11,0.07v0.36h-2.93v-0.36l1.14-0.07V145.16z
				"/>
			<g>
				<g>
					<path class="st40" d="M133.95,145.87c2.76-1.74,12.1-6.66,21.35-0.41"/>
					<g>
						<path class="st41" d="M134.57,146.73c-0.48,0.31-1.13,0.18-1.44-0.3c-0.31-0.48-0.18-1.13,0.3-1.44
							c0.48-0.31,1.13-0.18,1.44,0.3C135.19,145.77,135.06,146.41,134.57,146.73z"/>
					</g>
					<g>
						<path class="st41" d="M154.67,146.34c0.48,0.32,1.13,0.18,1.44-0.3c0.32-0.48,0.18-1.13-0.3-1.44
							c-0.48-0.32-1.13-0.18-1.44,0.3C154.05,145.38,154.19,146.03,154.67,146.34z"/>
					</g>
				</g>
			</g>
		</g>
	</g>
	<g>
		<g>
			<path class="st41" d="M129.84,162.2v0.96h-3.7v-0.96h1.38v-3.38c-0.06,0.08-0.15,0.16-0.27,0.24c-0.12,0.08-0.26,0.16-0.41,0.24
				c-0.15,0.07-0.31,0.13-0.46,0.18s-0.3,0.07-0.43,0.07v-1c0.13,0,0.28-0.04,0.45-0.12c0.17-0.08,0.33-0.17,0.5-0.28
				c0.16-0.11,0.31-0.21,0.42-0.31c0.12-0.1,0.18-0.17,0.2-0.22h1.1v4.58H129.84z"/>
		</g>
		<g>
			<path class="st41" d="M146.87,148.72v0.96h-3.7v-0.96h1.38v-3.38c-0.06,0.08-0.15,0.16-0.27,0.24c-0.12,0.08-0.26,0.16-0.41,0.24
				c-0.15,0.07-0.31,0.13-0.46,0.18s-0.3,0.07-0.43,0.07v-1c0.13,0,0.28-0.04,0.45-0.12c0.17-0.08,0.33-0.17,0.5-0.28
				c0.16-0.11,0.31-0.21,0.42-0.31c0.12-0.1,0.18-0.17,0.2-0.22h1.1v4.58H146.87z"/>
		</g>
		<g>
			<path class="st41" d="M163.12,162.2v0.96h-3.7v-0.96h1.38v-3.38c-0.06,0.08-0.15,0.16-0.27,0.24c-0.12,0.08-0.26,0.16-0.41,0.24
				c-0.15,0.07-0.31,0.13-0.46,0.18c-0.16,0.05-0.3,0.07-0.43,0.07v-1c0.13,0,0.28-0.04,0.45-0.12c0.17-0.08,0.33-0.17,0.5-0.28
				c0.16-0.11,0.31-0.21,0.42-0.31c0.12-0.1,0.18-0.17,0.2-0.22h1.1v4.58H163.12z"/>
		</g>
		<g>
			<path class="st41" d="M163.13,179.47v0.96h-3.7v-0.96h1.38v-3.38c-0.06,0.08-0.15,0.16-0.27,0.24c-0.12,0.08-0.26,0.16-0.41,0.24
				c-0.15,0.07-0.31,0.13-0.46,0.18c-0.16,0.05-0.3,0.07-0.43,0.07v-1c0.13,0,0.28-0.04,0.45-0.12c0.17-0.08,0.33-0.17,0.5-0.28
				c0.16-0.11,0.31-0.21,0.42-0.31c0.12-0.1,0.18-0.17,0.2-0.22h1.1v4.58H163.13z"/>
		</g>
		<g>
			<path class="st41" d="M129.84,179.47v0.96h-3.7v-0.96h1.38v-3.38c-0.06,0.08-0.15,0.16-0.27,0.24c-0.12,0.08-0.26,0.16-0.41,0.24
				c-0.15,0.07-0.31,0.13-0.46,0.18c-0.16,0.04-0.3,0.07-0.43,0.07v-1c0.13,0,0.28-0.04,0.45-0.12c0.17-0.08,0.33-0.17,0.5-0.28
				c0.16-0.11,0.31-0.21,0.42-0.31c0.12-0.1,0.18-0.17,0.2-0.22h1.1v4.58H129.84z"/>
		</g>
		<g>
			<g>
				<path class="st41" d="M130.45,168.99c0,0.56-0.11,1.06-0.32,1.49c-0.22,0.44-0.51,0.78-0.88,1.03c-0.37,0.25-0.8,0.37-1.28,0.37
					c-0.47,0-0.9-0.12-1.27-0.37c-0.37-0.25-0.67-0.59-0.89-1.03c-0.22-0.44-0.32-0.93-0.32-1.49c0-0.56,0.11-1.06,0.32-1.5
					c0.22-0.44,0.51-0.78,0.89-1.03c0.37-0.25,0.8-0.38,1.27-0.38c0.48,0,0.9,0.13,1.28,0.38c0.37,0.25,0.67,0.6,0.88,1.03
					C130.35,167.93,130.45,168.43,130.45,168.99z M129.37,168.99c0-0.38-0.06-0.71-0.17-1c-0.12-0.29-0.28-0.51-0.49-0.67
					c-0.21-0.16-0.46-0.24-0.73-0.24c-0.28,0-0.52,0.08-0.74,0.24c-0.21,0.16-0.38,0.39-0.5,0.67c-0.12,0.29-0.18,0.62-0.18,1
					c0,0.38,0.06,0.71,0.18,1c0.12,0.28,0.29,0.51,0.5,0.67c0.21,0.16,0.46,0.24,0.74,0.24c0.27,0,0.51-0.08,0.72-0.24
					c0.21-0.16,0.37-0.38,0.49-0.67C129.31,169.7,129.37,169.37,129.37,168.99z"/>
			</g>
		</g>
		<g>
			<g>
				<path class="st41" d="M163.68,186.26c0,0.56-0.11,1.06-0.32,1.49c-0.22,0.44-0.51,0.78-0.88,1.03c-0.37,0.25-0.8,0.37-1.28,0.37
					c-0.47,0-0.9-0.12-1.27-0.37c-0.37-0.25-0.67-0.59-0.89-1.03c-0.22-0.44-0.32-0.93-0.32-1.49c0-0.56,0.11-1.06,0.32-1.5
					c0.22-0.44,0.51-0.78,0.89-1.03c0.37-0.25,0.8-0.38,1.27-0.38c0.48,0,0.9,0.13,1.28,0.38c0.37,0.25,0.67,0.6,0.88,1.03
					C163.57,185.2,163.68,185.7,163.68,186.26z M162.6,186.26c0-0.38-0.06-0.71-0.17-1c-0.12-0.29-0.28-0.51-0.49-0.67
					c-0.21-0.16-0.46-0.24-0.73-0.24c-0.28,0-0.52,0.08-0.74,0.24c-0.21,0.16-0.38,0.39-0.5,0.67c-0.12,0.29-0.18,0.62-0.18,1
					c0,0.38,0.06,0.71,0.18,1c0.12,0.28,0.29,0.51,0.5,0.67c0.21,0.16,0.46,0.24,0.74,0.24c0.27,0,0.51-0.08,0.72-0.24
					c0.21-0.16,0.37-0.38,0.49-0.67C162.54,186.97,162.6,186.64,162.6,186.26z"/>
			</g>
		</g>
		<g>
			<g>
				<path class="st41" d="M163.68,168.99c0,0.56-0.11,1.06-0.32,1.49c-0.22,0.44-0.51,0.78-0.88,1.03c-0.37,0.25-0.8,0.37-1.28,0.37
					c-0.47,0-0.9-0.12-1.27-0.37c-0.37-0.25-0.67-0.59-0.89-1.03c-0.22-0.44-0.32-0.93-0.32-1.49c0-0.56,0.11-1.06,0.32-1.5
					c0.22-0.44,0.51-0.78,0.89-1.03c0.37-0.25,0.8-0.38,1.27-0.38c0.48,0,0.9,0.13,1.28,0.38c0.37,0.25,0.67,0.6,0.88,1.03
					C163.57,167.93,163.68,168.43,163.68,168.99z M162.6,168.99c0-0.38-0.06-0.71-0.17-1c-0.12-0.29-0.28-0.51-0.49-0.67
					c-0.21-0.16-0.46-0.24-0.73-0.24c-0.28,0-0.52,0.08-0.74,0.24c-0.21,0.16-0.38,0.39-0.5,0.67c-0.12,0.29-0.18,0.62-0.18,1
					c0,0.38,0.06,0.71,0.18,1c0.12,0.28,0.29,0.51,0.5,0.67c0.21,0.16,0.46,0.24,0.74,0.24c0.27,0,0.51-0.08,0.72-0.24
					c0.21-0.16,0.37-0.38,0.49-0.67C162.54,169.7,162.6,169.37,162.6,168.99z"/>
			</g>
		</g>
		<g>
			<g>
				<path class="st41" d="M160.46,152.7c0,0.56-0.11,1.06-0.32,1.49c-0.22,0.44-0.51,0.78-0.88,1.03c-0.37,0.25-0.8,0.37-1.28,0.37
					c-0.47,0-0.9-0.12-1.27-0.37c-0.37-0.25-0.67-0.59-0.89-1.03c-0.22-0.44-0.32-0.93-0.32-1.49c0-0.56,0.11-1.06,0.32-1.5
					c0.22-0.44,0.51-0.78,0.89-1.03c0.37-0.25,0.8-0.38,1.27-0.38c0.48,0,0.9,0.13,1.28,0.38c0.37,0.25,0.67,0.6,0.88,1.03
					C160.35,151.64,160.46,152.14,160.46,152.7z M159.37,152.7c0-0.38-0.06-0.71-0.17-1c-0.12-0.29-0.28-0.51-0.49-0.67
					c-0.21-0.16-0.46-0.24-0.73-0.24c-0.28,0-0.52,0.08-0.74,0.24c-0.21,0.16-0.38,0.39-0.5,0.67c-0.12,0.29-0.18,0.62-0.18,1
					c0,0.38,0.06,0.71,0.18,1c0.12,0.28,0.29,0.51,0.5,0.67c0.21,0.16,0.46,0.24,0.74,0.24c0.27,0,0.51-0.08,0.72-0.24
					c0.21-0.16,0.37-0.38,0.49-0.67C159.31,153.41,159.37,153.08,159.37,152.7z"/>
			</g>
		</g>
		<g>
			<g>
				<path class="st41" d="M133.47,152.59c0,0.56-0.11,1.06-0.32,1.49c-0.22,0.44-0.51,0.78-0.88,1.03c-0.37,0.25-0.8,0.37-1.28,0.37
					c-0.47,0-0.9-0.12-1.27-0.37c-0.37-0.25-0.67-0.59-0.89-1.03c-0.22-0.44-0.32-0.93-0.32-1.49c0-0.56,0.11-1.06,0.32-1.5
					c0.22-0.44,0.51-0.78,0.89-1.03c0.37-0.25,0.8-0.38,1.27-0.38c0.48,0,0.9,0.13,1.28,0.38c0.37,0.25,0.67,0.6,0.88,1.03
					C133.36,151.53,133.47,152.03,133.47,152.59z M132.38,152.59c0-0.38-0.06-0.71-0.17-1c-0.12-0.29-0.28-0.51-0.49-0.67
					c-0.21-0.16-0.46-0.24-0.73-0.24c-0.28,0-0.52,0.08-0.74,0.24c-0.21,0.16-0.38,0.39-0.5,0.67c-0.12,0.29-0.18,0.62-0.18,1
					c0,0.38,0.06,0.71,0.18,1c0.12,0.28,0.29,0.51,0.5,0.67c0.21,0.16,0.46,0.24,0.74,0.24c0.27,0,0.51-0.08,0.72-0.24
					c0.21-0.16,0.37-0.38,0.49-0.67C132.32,153.3,132.38,152.97,132.38,152.59z"/>
			</g>
		</g>
		<g>
			<g>
				<path class="st41" d="M130.46,186.26c0,0.56-0.11,1.06-0.32,1.49c-0.22,0.44-0.51,0.78-0.88,1.03c-0.37,0.25-0.8,0.37-1.28,0.37
					c-0.47,0-0.9-0.12-1.27-0.37c-0.37-0.25-0.67-0.59-0.89-1.03c-0.22-0.44-0.32-0.93-0.32-1.49c0-0.56,0.11-1.06,0.32-1.5
					c0.22-0.44,0.51-0.78,0.89-1.03c0.37-0.25,0.8-0.38,1.27-0.38c0.48,0,0.9,0.13,1.28,0.38c0.37,0.25,0.67,0.6,0.88,1.03
					C130.35,185.2,130.46,185.7,130.46,186.26z M129.37,186.26c0-0.38-0.06-0.71-0.17-1c-0.12-0.29-0.28-0.51-0.49-0.67
					c-0.21-0.16-0.46-0.24-0.73-0.24c-0.28,0-0.52,0.08-0.74,0.24c-0.21,0.16-0.38,0.39-0.5,0.67c-0.12,0.29-0.18,0.62-0.18,1
					c0,0.38,0.06,0.71,0.18,1c0.12,0.28,0.29,0.51,0.5,0.67c0.21,0.16,0.46,0.24,0.74,0.24c0.27,0,0.51-0.08,0.72-0.24
					c0.21-0.16,0.37-0.38,0.49-0.67C129.31,186.97,129.37,186.64,129.37,186.26z"/>
			</g>
		</g>
	</g>
</g>
</svg>
