<?xml version="1.0" encoding="utf-8"?>
<!-- Generator: Adobe Illustrator 27.2.0, SVG Export Plug-In . SVG Version: 6.00 Build 0)  -->
<svg version="1.1" id="Layer_1" xmlns="http://www.w3.org/2000/svg" xmlns:xlink="http://www.w3.org/1999/xlink" x="0px" y="0px"
	 viewBox="0 0 1080 1080" style="enable-background:new 0 0 1080 1080;" xml:space="preserve">
<style type="text/css">
	.st0{fill:#005D93;}
	.st1{fill:#00FFFF;}
	.st2{fill:none;stroke:#FFFFFF;stroke-width:0.7513;stroke-miterlimit:10;}
	.st3{fill:#FFFFFF;}
	.st4{fill:none;stroke:url(#SVGID_1_);stroke-width:13.5235;stroke-linecap:round;stroke-miterlimit:10;}
	
		.st5{fill:none;stroke:url(#SVGID_00000181791781975018517950000005423366958319893433_);stroke-width:3.0052;stroke-linecap:round;stroke-miterlimit:10;}
	
		.st6{fill:none;stroke:url(#SVGID_00000155146469234896890940000002157961895456150193_);stroke-width:3.0052;stroke-linecap:round;stroke-miterlimit:10;}
	
		.st7{fill:none;stroke:url(#SVGID_00000176736643064307609960000016907782500980579769_);stroke-width:3.0052;stroke-linecap:round;stroke-miterlimit:10;}
	
		.st8{fill:none;stroke:url(#SVGID_00000053528903270338506550000000598038203028440508_);stroke-width:3.0052;stroke-linecap:round;stroke-miterlimit:10;}
	
		.st9{fill:none;stroke:url(#SVGID_00000183208099591644897580000017723300174376658069_);stroke-width:3.0052;stroke-linecap:round;stroke-miterlimit:10;}
	
		.st10{fill:none;stroke:url(#SVGID_00000093855083315855096990000017613587684377351359_);stroke-width:3.0052;stroke-linecap:round;stroke-miterlimit:10;}
	
		.st11{fill:none;stroke:url(#SVGID_00000028327458840799973050000003899002177194796200_);stroke-width:3.0052;stroke-linecap:round;stroke-miterlimit:10;}
	
		.st12{fill:none;stroke:url(#SVGID_00000052090536766464137360000015554541670995312306_);stroke-width:3.0052;stroke-linecap:round;stroke-miterlimit:10;}
	
		.st13{fill:none;stroke:url(#SVGID_00000150782179363010104240000000619072020717467546_);stroke-width:3.0052;stroke-linecap:round;stroke-miterlimit:10;}
	
		.st14{fill:none;stroke:url(#SVGID_00000008851736720647732330000016211433550798883231_);stroke-width:3.0052;stroke-linecap:round;stroke-miterlimit:10;}
	
		.st15{fill:none;stroke:url(#SVGID_00000057108287268275109650000009149814727277539499_);stroke-width:3.0052;stroke-linecap:round;stroke-miterlimit:10;}
	
		.st16{fill:none;stroke:url(#SVGID_00000076603850717460969790000009366044701504029327_);stroke-width:3.0052;stroke-linecap:round;stroke-miterlimit:10;}
	
		.st17{fill:none;stroke:url(#SVGID_00000003097263575538086970000005343698626856035503_);stroke-width:0.5;stroke-linecap:round;stroke-miterlimit:10;}
	
		.st18{fill:none;stroke:url(#SVGID_00000152950777003820154100000008973763212062645179_);stroke-width:0.5;stroke-linecap:round;stroke-miterlimit:10;}
	
		.st19{fill:none;stroke:url(#SVGID_00000002358543624637965490000004299920316417518721_);stroke-width:3.0052;stroke-linecap:round;stroke-miterlimit:10;}
	
		.st20{fill:none;stroke:url(#SVGID_00000092458743235995538350000009710482109478016668_);stroke-width:3.0052;stroke-linecap:round;stroke-miterlimit:10;}
	
		.st21{fill:none;stroke:url(#SVGID_00000047055985467840214180000000250507530961930380_);stroke-width:3.0052;stroke-linecap:round;stroke-miterlimit:10;}
	
		.st22{fill:none;stroke:url(#SVGID_00000021802868722302702050000015178557354467828899_);stroke-width:3.0052;stroke-linecap:round;stroke-miterlimit:10;}
	
		.st23{fill:none;stroke:url(#SVGID_00000179612812165320288560000007222281052420180393_);stroke-width:13.5235;stroke-linecap:round;stroke-miterlimit:10;}
	
		.st24{fill:none;stroke:url(#SVGID_00000003802972278043439570000013082497432060371370_);stroke-width:3.0052;stroke-linecap:round;stroke-miterlimit:10;}
	
		.st25{fill:none;stroke:url(#SVGID_00000018929145960860159280000009359230667064410536_);stroke-width:3.0052;stroke-linecap:round;stroke-miterlimit:10;}
	
		.st26{fill:none;stroke:url(#SVGID_00000176740165487163487860000000411652695329969334_);stroke-width:3.0052;stroke-linecap:round;stroke-miterlimit:10;}
	
		.st27{fill:none;stroke:url(#SVGID_00000003826859250469822490000008749141104262882473_);stroke-width:3.0052;stroke-linecap:round;stroke-miterlimit:10;}
	
		.st28{fill:none;stroke:url(#SVGID_00000107573418052955348120000011255233555615196808_);stroke-width:3.0052;stroke-linecap:round;stroke-miterlimit:10;}
	
		.st29{fill:none;stroke:url(#SVGID_00000031179145625870825700000014786078736339512489_);stroke-width:3.0052;stroke-linecap:round;stroke-miterlimit:10;}
	
		.st30{fill:none;stroke:url(#SVGID_00000098218879413291137190000013905250922171634850_);stroke-width:3.0052;stroke-linecap:round;stroke-miterlimit:10;}
	
		.st31{fill:none;stroke:url(#SVGID_00000131365877249430579580000001284723327327888037_);stroke-width:3.0052;stroke-linecap:round;stroke-miterlimit:10;}
	
		.st32{fill:none;stroke:url(#SVGID_00000000196561730689946350000003784954345080157837_);stroke-width:3.0052;stroke-linecap:round;stroke-miterlimit:10;}
	
		.st33{fill:none;stroke:url(#SVGID_00000077325967646606032660000003966358997667573682_);stroke-width:3.0052;stroke-linecap:round;stroke-miterlimit:10;}
	
		.st34{fill:none;stroke:url(#SVGID_00000083071934164944309040000005431208516105970354_);stroke-width:3.0052;stroke-linecap:round;stroke-miterlimit:10;}
	
		.st35{fill:none;stroke:url(#SVGID_00000144338510605636169290000004607749184572645292_);stroke-width:3.0052;stroke-linecap:round;stroke-miterlimit:10;}
	
		.st36{fill:none;stroke:url(#SVGID_00000179607085030190151240000015343087380255575473_);stroke-width:0.5;stroke-linecap:round;stroke-miterlimit:10;}
	
		.st37{fill:none;stroke:url(#SVGID_00000136406942683814124210000018262810121591686788_);stroke-width:0.5;stroke-linecap:round;stroke-miterlimit:10;}
	
		.st38{fill:none;stroke:url(#SVGID_00000103985066440058560450000004629669421641133710_);stroke-width:3.0052;stroke-linecap:round;stroke-miterlimit:10;}
	
		.st39{fill:none;stroke:url(#SVGID_00000095339198889637164050000012768439823966310835_);stroke-width:3.0052;stroke-linecap:round;stroke-miterlimit:10;}
	
		.st40{fill:none;stroke:url(#SVGID_00000094607823891952749260000000471186416167921840_);stroke-width:3.0052;stroke-linecap:round;stroke-miterlimit:10;}
	
		.st41{fill:none;stroke:url(#SVGID_00000102528118942039974270000011227466310168245658_);stroke-width:3.0052;stroke-linecap:round;stroke-miterlimit:10;}
</style>
<g>
	<g>
		<path class="st0" d="M166.81,758.77c-2.35-1.33-4.16-3.2-5.42-5.61c-1.26-2.41-1.88-5.23-1.88-8.44c0-3.19,0.63-5.99,1.88-8.4
			c1.26-2.41,3.06-4.28,5.42-5.59c2.35-1.32,5.11-1.97,8.27-1.97c2.08,0,4.06,0.31,5.94,0.94c1.89,0.63,3.43,1.51,4.63,2.65
			l-2.15,4.91c-1.4-1.05-2.77-1.82-4.1-2.3c-1.33-0.48-2.73-0.72-4.19-0.72c-2.81,0-4.96,0.89-6.45,2.68
			c-1.49,1.78-2.24,4.39-2.24,7.81c0,3.45,0.75,6.07,2.24,7.87c1.49,1.8,3.64,2.7,6.45,2.7c1.46,0,2.86-0.24,4.19-0.72
			c1.33-0.48,2.7-1.25,4.1-2.3l2.15,4.91c-1.2,1.14-2.74,2.03-4.63,2.65c-1.89,0.63-3.87,0.94-5.94,0.94
			C171.93,760.77,169.17,760.1,166.81,758.77z"/>
		<path class="st0" d="M216.84,760.37h-7.24l-3.99-10.4c-0.32-0.82-0.81-1.39-1.47-1.71c-0.66-0.32-1.48-0.48-2.48-0.48h-4.43v12.59
			h-6.76v-31.23h13.9c3.62,0,6.37,0.79,8.25,2.37c1.87,1.58,2.81,3.85,2.81,6.8c0,2.08-0.55,3.86-1.65,5.35
			c-1.1,1.49-2.67,2.56-4.71,3.2c1.84,0.38,3.17,1.65,3.99,3.82L216.84,760.37z M203.37,742.56c1.96,0,3.39-0.33,4.3-0.99
			c0.91-0.66,1.36-1.69,1.36-3.09c0-1.4-0.45-2.43-1.36-3.09c-0.91-0.66-2.34-0.99-4.3-0.99h-6.23v8.16H203.37z"/>
		<path class="st0" d="M241.97,753.44h-14.61l-2.98,6.93h-6.89l14.34-31.23h5.53l14.34,31.23h-6.75L241.97,753.44z M239.73,748.22
			l-5.04-11.71l-5.04,11.71H239.73z"/>
		<path class="st0" d="M254.39,729.14h21.05v5.4h-14.3v7.24h13.42v5.44h-13.42v13.16h-6.75V729.14z"/>
		<path class="st0" d="M287.76,734.71h-9.78v-5.57h26.49v5.57h-9.78v25.66h-6.93V734.71z"/>
		<path class="st0" d="M308.11,729.14h6.84v31.23h-6.84V729.14z"/>
		<path class="st0" d="M348.29,729.14v31.23h-5.09l-15.57-19.91v19.91h-6.4v-31.23h5.04l15.57,19.87v-19.87H348.29z"/>
		<path class="st0" d="M381.36,743.13v15.31c-1.52,0.73-3.3,1.3-5.33,1.71c-2.03,0.41-4.12,0.61-6.25,0.61
			c-3.3,0-6.17-0.64-8.6-1.93c-2.43-1.29-4.29-3.13-5.59-5.53c-1.3-2.4-1.95-5.26-1.95-8.6c0-3.25,0.65-6.07,1.95-8.47
			c1.3-2.4,3.14-4.25,5.53-5.55c2.38-1.3,5.17-1.95,8.36-1.95c2.25,0,4.35,0.31,6.29,0.92c1.95,0.61,3.55,1.48,4.8,2.59l-2.19,4.91
			c-1.46-1.05-2.88-1.81-4.25-2.28c-1.38-0.47-2.87-0.7-4.47-0.7c-6.02,0-9.04,3.51-9.04,10.53c0,7.16,3.14,10.75,9.43,10.75
			c1.73,0,3.45-0.22,5.18-0.66v-6.89h-6.14v-4.78H381.36z"/>
		<path class="st0" d="M406.76,734.71h-9.78v-5.57h26.49v5.57h-9.78v25.66h-6.93V734.71z"/>
		<path class="st0" d="M431.56,758.82c-2.3-1.3-4.06-3.17-5.31-5.59c-1.24-2.43-1.86-5.26-1.86-8.51c0-3.25,0.62-6.07,1.86-8.47
			c1.24-2.4,3.01-4.25,5.31-5.55c2.3-1.3,4.99-1.95,8.09-1.95c3.1,0,5.79,0.65,8.07,1.95c2.28,1.3,4.04,3.15,5.26,5.55
			c1.23,2.4,1.84,5.22,1.84,8.47c0,3.25-0.61,6.08-1.84,8.51c-1.23,2.43-2.98,4.29-5.26,5.59c-2.28,1.3-4.97,1.95-8.07,1.95
			C436.56,760.77,433.86,760.12,431.56,758.82z M445.82,752.65c1.48-1.84,2.22-4.49,2.22-7.94c0-3.45-0.74-6.08-2.22-7.9
			c-1.48-1.81-3.53-2.72-6.16-2.72s-4.69,0.91-6.16,2.72c-1.48,1.81-2.22,4.45-2.22,7.9c0,3.48,0.74,6.13,2.22,7.96
			c1.48,1.83,3.53,2.74,6.16,2.74S444.34,754.49,445.82,752.65z"/>
		<path class="st0" d="M491.19,729.14v31.23h-6.05v-17.06l-7.19,17.06h-4.43l-7.24-16.84v16.84h-6.01v-31.23h5.44l10.09,23.03
			l10-23.03H491.19z"/>
		<path class="st0" d="M503.76,758.82c-2.3-1.3-4.06-3.17-5.31-5.59c-1.24-2.43-1.86-5.26-1.86-8.51c0-3.25,0.62-6.07,1.86-8.47
			c1.24-2.4,3.01-4.25,5.31-5.55c2.3-1.3,4.99-1.95,8.09-1.95c3.1,0,5.79,0.65,8.07,1.95c2.28,1.3,4.04,3.15,5.26,5.55
			c1.23,2.4,1.84,5.22,1.84,8.47c0,3.25-0.61,6.08-1.84,8.51c-1.23,2.43-2.98,4.29-5.26,5.59s-4.97,1.95-8.07,1.95
			C508.75,760.77,506.05,760.12,503.76,758.82z M518.01,752.65c1.48-1.84,2.22-4.49,2.22-7.94c0-3.45-0.74-6.08-2.22-7.9
			c-1.48-1.81-3.53-2.72-6.16-2.72c-2.63,0-4.69,0.91-6.16,2.72c-1.48,1.81-2.22,4.45-2.22,7.9c0,3.48,0.74,6.13,2.22,7.96
			c1.48,1.83,3.53,2.74,6.16,2.74C514.48,755.41,516.54,754.49,518.01,752.65z"/>
		<path class="st0" d="M558.74,760.37h-7.24l-3.99-10.4c-0.32-0.82-0.81-1.39-1.47-1.71c-0.66-0.32-1.48-0.48-2.48-0.48h-4.43v12.59
			h-6.76v-31.23h13.9c3.63,0,6.37,0.79,8.25,2.37c1.87,1.58,2.81,3.85,2.81,6.8c0,2.08-0.55,3.86-1.64,5.35
			c-1.1,1.49-2.67,2.56-4.71,3.2c1.84,0.38,3.17,1.65,3.99,3.82L558.74,760.37z M545.28,742.56c1.96,0,3.39-0.33,4.3-0.99
			c0.91-0.66,1.36-1.69,1.36-3.09c0-1.4-0.45-2.43-1.36-3.09c-0.91-0.66-2.34-0.99-4.3-0.99h-6.23v8.16H545.28z"/>
		<path class="st0" d="M589.79,760.37h-7.24l-3.99-10.4c-0.32-0.82-0.81-1.39-1.47-1.71c-0.66-0.32-1.48-0.48-2.48-0.48h-4.43v12.59
			h-6.76v-31.23h13.9c3.63,0,6.37,0.79,8.25,2.37c1.87,1.58,2.81,3.85,2.81,6.8c0,2.08-0.55,3.86-1.64,5.35
			c-1.1,1.49-2.67,2.56-4.71,3.2c1.84,0.38,3.17,1.65,3.99,3.82L589.79,760.37z M576.33,742.56c1.96,0,3.39-0.33,4.3-0.99
			c0.91-0.66,1.36-1.69,1.36-3.09c0-1.4-0.45-2.43-1.36-3.09c-0.91-0.66-2.34-0.99-4.3-0.99h-6.23v8.16H576.33z"/>
		<path class="st0" d="M600.52,758.82c-2.3-1.3-4.06-3.17-5.31-5.59c-1.24-2.43-1.86-5.26-1.86-8.51c0-3.25,0.62-6.07,1.86-8.47
			c1.24-2.4,3.01-4.25,5.31-5.55c2.3-1.3,4.99-1.95,8.09-1.95c3.1,0,5.79,0.65,8.07,1.95c2.28,1.3,4.04,3.15,5.26,5.55
			c1.23,2.4,1.84,5.22,1.84,8.47c0,3.25-0.61,6.08-1.84,8.51c-1.23,2.43-2.98,4.29-5.26,5.59c-2.28,1.3-4.97,1.95-8.07,1.95
			C605.51,760.77,602.81,760.12,600.52,758.82z M614.77,752.65c1.48-1.84,2.22-4.49,2.22-7.94c0-3.45-0.74-6.08-2.22-7.9
			c-1.48-1.81-3.53-2.72-6.16-2.72s-4.69,0.91-6.16,2.72c-1.48,1.81-2.22,4.45-2.22,7.9c0,3.48,0.74,6.13,2.22,7.96
			c1.48,1.83,3.53,2.74,6.16,2.74S613.3,754.49,614.77,752.65z"/>
		<path class="st0" d="M673.7,729.14l-11.1,31.23h-5.48l-7.28-20.66l-7.32,20.66h-5.48l-11.1-31.23h6.97l7.19,21.58l7.54-21.58h4.78
			l7.37,21.89l7.37-21.89H673.7z"/>
		<path class="st0" d="M681.64,753.31v4.52c0,1.73-0.3,3.28-0.9,4.67c-0.6,1.39-1.62,2.79-3.05,4.19l-2.59-2.02
			c1.43-1.49,2.32-2.92,2.67-4.3h-3.29v-7.06H681.64z"/>
		<path class="st0" d="M723.53,746.99c0.99,1.32,1.49,2.92,1.49,4.82c0,2.63-0.98,4.72-2.94,6.25c-1.96,1.53-4.62,2.3-7.98,2.3
			h-14.83v-31.23h14.39c3.25,0,5.81,0.72,7.7,2.17c1.89,1.45,2.83,3.43,2.83,5.94c0,1.64-0.43,3.07-1.29,4.3
			c-0.86,1.23-2.05,2.12-3.58,2.68C721.13,744.76,722.54,745.68,723.53,746.99z M705.94,741.86h6.58c1.75,0,3.06-0.3,3.92-0.9
			c0.86-0.6,1.29-1.53,1.29-2.79c0-1.29-0.43-2.24-1.29-2.85c-0.86-0.61-2.17-0.92-3.92-0.92h-6.58V741.86z M717.32,754.17
			c0.83-0.63,1.25-1.63,1.25-3c0-1.4-0.42-2.43-1.25-3.07c-0.83-0.64-2.17-0.96-4.01-0.96h-7.37v7.98h7.37
			C715.15,755.11,716.49,754.79,717.32,754.17z"/>
		<path class="st0" d="M729.8,729.14h6.84v31.23h-6.84V729.14z"/>
		<path class="st0" d="M750.11,734.71h-9.78v-5.57h26.49v5.57h-9.78v25.66h-6.93V734.71z"/>
		<path class="st0" d="M807.04,746.99c0.99,1.32,1.49,2.92,1.49,4.82c0,2.63-0.98,4.72-2.94,6.25c-1.96,1.53-4.62,2.3-7.98,2.3
			h-14.83v-31.23h14.39c3.25,0,5.81,0.72,7.7,2.17c1.89,1.45,2.83,3.43,2.83,5.94c0,1.64-0.43,3.07-1.29,4.3
			c-0.86,1.23-2.05,2.12-3.58,2.68C804.64,744.76,806.05,745.68,807.04,746.99z M789.45,741.86h6.58c1.75,0,3.06-0.3,3.92-0.9
			c0.86-0.6,1.29-1.53,1.29-2.79c0-1.29-0.43-2.24-1.29-2.85c-0.86-0.61-2.17-0.92-3.92-0.92h-6.58V741.86z M800.84,754.17
			c0.83-0.63,1.25-1.63,1.25-3c0-1.4-0.42-2.43-1.25-3.07c-0.83-0.64-2.17-0.96-4.01-0.96h-7.37v7.98h7.37
			C798.66,755.11,800,754.79,800.84,754.17z"/>
		<path class="st0" d="M827.26,748.27v12.11h-6.84v-12.15l-12.89-19.08h7.76l8.51,13.33l8.6-13.33h7.81L827.26,748.27z"/>
		<path class="st0" d="M877.62,746.99c0.99,1.32,1.49,2.92,1.49,4.82c0,2.63-0.98,4.72-2.94,6.25c-1.96,1.53-4.62,2.3-7.98,2.3
			h-14.83v-31.23h14.39c3.25,0,5.81,0.72,7.7,2.17c1.89,1.45,2.83,3.43,2.83,5.94c0,1.64-0.43,3.07-1.29,4.3
			c-0.86,1.23-2.05,2.12-3.58,2.68C875.22,744.76,876.62,745.68,877.62,746.99z M860.03,741.86h6.58c1.75,0,3.06-0.3,3.92-0.9
			c0.86-0.6,1.29-1.53,1.29-2.79c0-1.29-0.43-2.24-1.29-2.85c-0.86-0.61-2.17-0.92-3.92-0.92h-6.58V741.86z M871.41,754.17
			c0.83-0.63,1.25-1.63,1.25-3c0-1.4-0.42-2.43-1.25-3.07c-0.83-0.64-2.17-0.96-4.01-0.96h-7.37v7.98h7.37
			C869.24,755.11,870.58,754.79,871.41,754.17z"/>
		<path class="st0" d="M883.89,729.14h6.84v31.23h-6.84V729.14z"/>
		<path class="st0" d="M904.2,734.71h-9.78v-5.57h26.49v5.57h-9.78v25.66h-6.93V734.71z"/>
	</g>
	<g>
		<path class="st0" d="M222.12,474.64h-34v-30.49h99.16v30.49h-33.84V580.1h-31.31V474.64z"/>
		<path class="st0" d="M711.68,474.57h-34v-30.51h99.16v30.51h-33.84V580.1h-31.31V474.57z"/>
		<path class="st0" d="M384.3,550.43v29.67h-88.03V444.35h85.99v29.67h-55.29v22.88h48.71v28.7h-48.71v24.82H384.3z"/>
		<path class="st0" d="M619.51,521.93c3.28,5.76,4.92,12.72,4.92,20.88c0,11.91-3.57,21.11-10.71,27.58
			c-7.14,6.48-17.47,9.71-30.97,9.71h-54.71V444.15h51.82c12.93,0,22.77,3.2,29.53,9.61c6.75,6.41,10.13,15.05,10.13,25.93
			c0,6.48-1.18,12.27-3.55,17.38c-2.37,5.12-5.72,9.16-10.06,12.14C611.69,511.93,616.23,516.17,619.51,521.93z M556.4,471.92v26.22
			h19.68c9.65,0,14.47-4.4,14.47-13.21c0-8.67-4.83-13.01-14.47-13.01H556.4z M595.48,538.54c0-9.19-5.02-13.79-15.05-13.79H556.4
			v27.58h24.03C590.46,552.33,595.48,547.73,595.48,538.54z"/>
		<path class="st0" d="M635.04,444.05h32.44V580.1h-32.44V444.05z"/>
		<path class="st0" d="M892.31,549.59v30.51H786.37V556l59.64-81.44H787.9v-30.51h101.88v24.1l-59.64,81.44H892.31z"/>
		<g>
			<path class="st0" d="M455.75,444.45L455.75,444.45c-34.53,0-62.52,27.99-62.52,62.52v73.13h35.37v-78.07
				c0-14.99,12.15-27.15,27.15-27.15c14.99,0,27.15,12.15,27.15,27.15v78.07h35.37v-73.13
				C518.26,472.44,490.27,444.45,455.75,444.45z"/>
			<g>
				<g>
					<path class="st1" d="M405.91,573.94c-0.92-1.41-1.38-3.17-1.38-5.27c0-1.44,0.27-2.72,0.8-3.83c0.54-1.11,1.26-1.97,2.17-2.59
						c0.91-0.61,1.92-0.92,3.02-0.92c2.01,0,3.45,0.65,4.31,1.95c0.87,1.3,1.3,3.04,1.3,5.22c0,1.43-0.26,2.71-0.77,3.86
						c-0.51,1.15-1.22,2.05-2.12,2.7c-0.9,0.65-1.91,0.98-3.02,0.98C408.27,576.06,406.83,575.35,405.91,573.94z M413.2,573.34
						c0.61-1.1,0.92-2.64,0.92-4.62c0-4.22-1.24-6.32-3.72-6.32c-1.32,0-2.29,0.53-2.92,1.59c-0.63,1.06-0.94,2.53-0.94,4.41
						c0,1.87,0.3,3.44,0.91,4.7c0.61,1.26,1.56,1.9,2.86,1.9C411.62,575,412.59,574.45,413.2,573.34z"/>
					<path class="st1" d="M409.67,540.4c-0.32,0.14-0.84,0.31-1.54,0.51c-0.71,0.2-1.3,0.33-1.77,0.39l-0.23-1.08
						c0.77-0.17,1.53-0.44,2.3-0.83c0.77-0.38,1.43-0.81,1.98-1.29h0.02l1.1,0.23v13.15l3.01,0.18v0.99h-7.96v-0.99l3.08-0.18V540.4
						z"/>
				</g>
				<path class="st1" d="M405.89,527.1c-0.92-1.41-1.38-3.17-1.38-5.27c0-1.44,0.27-2.72,0.8-3.83c0.54-1.11,1.26-1.97,2.17-2.59
					c0.91-0.61,1.92-0.92,3.02-0.92c2.01,0,3.45,0.65,4.31,1.95c0.87,1.3,1.3,3.04,1.3,5.22c0,1.43-0.26,2.71-0.77,3.86
					c-0.51,1.15-1.22,2.05-2.12,2.7c-0.9,0.65-1.91,0.98-3.02,0.98C408.25,529.21,406.81,528.51,405.89,527.1z M413.18,526.5
					c0.61-1.1,0.92-2.64,0.92-4.62c0-4.22-1.24-6.32-3.72-6.32c-1.32,0-2.29,0.53-2.92,1.59c-0.63,1.06-0.94,2.53-0.94,4.41
					c0,1.87,0.3,3.44,0.91,4.7c0.61,1.26,1.56,1.9,2.86,1.9C411.6,528.16,412.57,527.6,413.18,526.5z"/>
				<path class="st1" d="M413.95,482.62c-0.92-1.41-1.38-3.17-1.38-5.27c0-1.44,0.27-2.72,0.8-3.83c0.54-1.11,1.26-1.97,2.17-2.59
					c0.91-0.61,1.92-0.92,3.02-0.92c2.01,0,3.45,0.65,4.31,1.95c0.87,1.3,1.3,3.04,1.3,5.22c0,1.43-0.26,2.71-0.77,3.86
					c-0.51,1.15-1.22,2.05-2.12,2.7c-0.9,0.65-1.91,0.98-3.02,0.98C416.31,484.74,414.87,484.04,413.95,482.62z M421.24,482.03
					c0.61-1.1,0.92-2.64,0.92-4.62c0-4.22-1.24-6.32-3.72-6.32c-1.32,0-2.29,0.53-2.92,1.59c-0.63,1.06-0.94,2.53-0.94,4.41
					c0,1.87,0.3,3.44,0.91,4.7c0.61,1.26,1.56,1.9,2.86,1.9C419.66,483.68,420.62,483.13,421.24,482.03z"/>
				<path class="st1" d="M409.64,493.56c-0.32,0.14-0.84,0.31-1.54,0.51c-0.71,0.2-1.3,0.33-1.77,0.39l-0.23-1.08
					c0.77-0.17,1.53-0.44,2.3-0.83c0.77-0.38,1.43-0.81,1.98-1.29h0.02l1.1,0.23v13.15l3.01,0.18v0.99h-7.96v-0.99l3.08-0.18V493.56
					z"/>
			</g>
			<g>
				<path class="st1" d="M495.99,573.94c-0.92-1.41-1.38-3.17-1.38-5.27c0-1.44,0.27-2.72,0.8-3.83c0.54-1.11,1.26-1.97,2.17-2.59
					c0.91-0.61,1.92-0.92,3.02-0.92c2.01,0,3.45,0.65,4.31,1.95c0.87,1.3,1.3,3.04,1.3,5.22c0,1.43-0.26,2.71-0.77,3.86
					c-0.51,1.15-1.22,2.05-2.12,2.7c-0.9,0.65-1.91,0.98-3.02,0.98C498.35,576.06,496.91,575.35,495.99,573.94z M503.28,573.34
					c0.61-1.1,0.92-2.64,0.92-4.62c0-4.22-1.24-6.32-3.72-6.32c-1.32,0-2.29,0.53-2.92,1.59c-0.63,1.06-0.94,2.53-0.94,4.41
					c0,1.87,0.3,3.44,0.91,4.7c0.61,1.26,1.56,1.9,2.86,1.9C501.7,575,502.67,574.45,503.28,573.34z"/>
				<path class="st1" d="M499.75,540.4c-0.32,0.14-0.84,0.31-1.54,0.51c-0.71,0.2-1.3,0.33-1.77,0.39l-0.23-1.08
					c0.77-0.17,1.53-0.44,2.3-0.83c0.77-0.38,1.43-0.81,1.98-1.29h0.02l1.1,0.23v13.15l3.01,0.18v0.99h-7.96v-0.99l3.08-0.18V540.4z
					"/>
			</g>
			<path class="st1" d="M495.97,527.1c-0.92-1.41-1.38-3.17-1.38-5.27c0-1.44,0.27-2.72,0.8-3.83c0.54-1.11,1.26-1.97,2.17-2.59
				c0.91-0.61,1.92-0.92,3.02-0.92c2.01,0,3.45,0.65,4.31,1.95c0.87,1.3,1.3,3.04,1.3,5.22c0,1.43-0.26,2.71-0.77,3.86
				c-0.51,1.15-1.22,2.05-2.12,2.7c-0.9,0.65-1.91,0.98-3.02,0.98C498.33,529.21,496.89,528.51,495.97,527.1z M503.26,526.5
				c0.61-1.1,0.92-2.64,0.92-4.62c0-4.22-1.24-6.32-3.72-6.32c-1.32,0-2.29,0.53-2.92,1.59c-0.63,1.06-0.94,2.53-0.94,4.41
				c0,1.87,0.3,3.44,0.91,4.7c0.61,1.26,1.56,1.9,2.86,1.9C501.68,528.16,502.65,527.6,503.26,526.5z"/>
			<path class="st1" d="M487.03,482.62c-0.92-1.41-1.38-3.17-1.38-5.27c0-1.44,0.27-2.72,0.8-3.83c0.54-1.11,1.26-1.97,2.17-2.59
				c0.91-0.61,1.92-0.92,3.02-0.92c2.01,0,3.45,0.65,4.31,1.95c0.87,1.3,1.3,3.04,1.3,5.22c0,1.43-0.26,2.71-0.77,3.86
				c-0.51,1.15-1.22,2.05-2.12,2.7c-0.9,0.65-1.91,0.98-3.02,0.98C489.39,484.74,487.95,484.04,487.03,482.62z M494.32,482.03
				c0.61-1.1,0.92-2.64,0.92-4.62c0-4.22-1.24-6.32-3.72-6.32c-1.32,0-2.29,0.53-2.92,1.59c-0.63,1.06-0.94,2.53-0.94,4.41
				c0,1.87,0.3,3.44,0.91,4.7c0.61,1.26,1.56,1.9,2.86,1.9C492.74,483.68,493.7,483.13,494.32,482.03z"/>
			<path class="st1" d="M499.72,493.56c-0.32,0.14-0.84,0.31-1.54,0.51c-0.71,0.2-1.3,0.33-1.77,0.39l-0.23-1.08
				c0.77-0.17,1.53-0.44,2.3-0.83c0.77-0.38,1.43-0.81,1.98-1.29h0.02l1.1,0.23v13.15l3.01,0.18v0.99h-7.96v-0.99l3.08-0.18V493.56z
				"/>
			<path class="st1" d="M455.72,457c-0.32,0.14-0.84,0.31-1.54,0.51c-0.71,0.2-1.3,0.33-1.77,0.39l-0.23-1.08
				c0.77-0.17,1.53-0.44,2.3-0.83c0.77-0.38,1.43-0.81,1.98-1.29h0.02l1.1,0.23v13.15l3.01,0.18v0.99h-7.96v-0.99l3.08-0.18V457z"/>
			<g>
				<g>
					<path class="st2" d="M426.47,458.92c7.5-4.73,32.83-18.05,57.91-1.1"/>
					<g>
						<path class="st3" d="M428.16,461.24c-1.31,0.85-3.06,0.49-3.91-0.82c-0.85-1.31-0.49-3.06,0.82-3.91
							c1.31-0.85,3.06-0.49,3.91,0.82S429.46,460.38,428.16,461.24z"/>
					</g>
					<g>
						<path class="st3" d="M482.64,460.07c1.28,0.9,3.04,0.58,3.93-0.69c0.9-1.28,0.58-3.04-0.69-3.93s-3.04-0.58-3.93,0.69
							C481.05,457.41,481.36,459.17,482.64,460.07z"/>
					</g>
				</g>
			</g>
		</g>
	</g>
	<g>
		<g>
			<g>
				<g>
					
						<linearGradient id="SVGID_1_" gradientUnits="userSpaceOnUse" x1="11357.8701" y1="-236.154" x2="11863.54" y2="-236.154" gradientTransform="matrix(-1 0 0 -1 12254.249 410.4077)">
						<stop  offset="0" style="stop-color:#DC0656"/>
						<stop  offset="1" style="stop-color:#DC0656"/>
					</linearGradient>
					<polyline class="st4" points="889.62,606.36 605.17,606.36 522.33,686.76 397.47,686.76 					"/>
					<g>
						
							<linearGradient id="SVGID_00000143581916390497493050000002362530607230047166_" gradientUnits="userSpaceOnUse" x1="11724.8926" y1="-271.0255" x2="11911.0107" y2="-271.0255" gradientTransform="matrix(-1 0 0 -1 12254.249 410.4077)">
							<stop  offset="0" style="stop-color:#AD7C23"/>
							<stop  offset="0.9512" style="stop-color:#AD7C23"/>
						</linearGradient>
						
							<polyline style="fill:none;stroke:url(#SVGID_00000143581916390497493050000002362530607230047166_);stroke-width:3.0052;stroke-linecap:round;stroke-miterlimit:10;" points="
							527.85,664.16 383.66,664.39 344.74,698.71 						"/>
					</g>
					
						<linearGradient id="SVGID_00000154413092300172458040000011570556723232497295_" gradientUnits="userSpaceOnUse" x1="11294.3438" y1="-240.3637" x2="11687.79" y2="-240.3637" gradientTransform="matrix(-1 0 0 -1 12254.249 410.4077)">
						<stop  offset="0" style="stop-color:#AD7C23"/>
						<stop  offset="0.9512" style="stop-color:#AD7C23"/>
					</linearGradient>
					
						<polyline style="fill:none;stroke:url(#SVGID_00000154413092300172458040000011570556723232497295_);stroke-width:3.0052;stroke-linecap:round;stroke-miterlimit:10;" points="
						567.96,673.3 614.22,628.25 958.4,628.25 					"/>
					
						<linearGradient id="SVGID_00000179639632811300399930000004941260109906549142_" gradientUnits="userSpaceOnUse" x1="11292.9551" y1="-260.9372" x2="11689.4297" y2="-260.9372" gradientTransform="matrix(-1 0 0 -1 12254.249 410.4077)">
						<stop  offset="0" style="stop-color:#AD7C23"/>
						<stop  offset="0.9512" style="stop-color:#AD7C23"/>
					</linearGradient>
					
						<polyline style="fill:none;stroke:url(#SVGID_00000179639632811300399930000004941260109906549142_);stroke-width:3.0052;stroke-linecap:round;stroke-miterlimit:10;" points="
						566.32,696.96 621.95,645.85 959.79,645.73 					"/>
					
						<linearGradient id="SVGID_00000032621823880368115730000016127750672000134818_" gradientUnits="userSpaceOnUse" x1="11292.9736" y1="-252.843" x2="11493.749" y2="-252.843" gradientTransform="matrix(-1 0 0 -1 12254.249 410.4077)">
						<stop  offset="0" style="stop-color:#AD7C23"/>
						<stop  offset="0.9512" style="stop-color:#AD7C23"/>
					</linearGradient>
					
						<line style="fill:none;stroke:url(#SVGID_00000032621823880368115730000016127750672000134818_);stroke-width:3.0052;stroke-linecap:round;stroke-miterlimit:10;" x1="959.77" y1="663.25" x2="762" y2="663.25"/>
					<g>
						
							<linearGradient id="SVGID_00000149364808558161763550000000223724806564474514_" gradientUnits="userSpaceOnUse" x1="11724.8936" y1="-231.9766" x2="12136.6406" y2="-231.9766" gradientTransform="matrix(-1 0 0 -1 12254.249 410.4077)">
							<stop  offset="0" style="stop-color:#AD7C23"/>
							<stop  offset="0.9512" style="stop-color:#AD7C23"/>
						</linearGradient>
						
							<polyline style="fill:none;stroke:url(#SVGID_00000149364808558161763550000000223724806564474514_);stroke-width:3.0052;stroke-linecap:round;stroke-miterlimit:10;" points="
							119.11,673.3 145.8,646.71 275.06,646.71 318.56,611.47 344.84,611.47 383.15,646.59 527.85,646.84 						"/>
					</g>
					<g>
						
							<linearGradient id="SVGID_00000115477646051534800440000010212766037004542855_" gradientUnits="userSpaceOnUse" x1="11724.8936" y1="-219.146" x2="11867.0068" y2="-219.146" gradientTransform="matrix(-1 0 0 -1 12254.249 410.4077)">
							<stop  offset="0" style="stop-color:#AD7C23"/>
							<stop  offset="0.9512" style="stop-color:#AD7C23"/>
						</linearGradient>
						
							<line style="fill:none;stroke:url(#SVGID_00000115477646051534800440000010212766037004542855_);stroke-width:3.0052;stroke-linecap:round;stroke-miterlimit:10;" x1="527.85" y1="629.7" x2="388.74" y2="629.41"/>
						
							<linearGradient id="SVGID_00000118367798519784230600000012421778314131972778_" gradientUnits="userSpaceOnUse" x1="11864.002" y1="-201.3167" x2="11949.8838" y2="-201.3167" gradientTransform="matrix(-1 0 0 -1 12254.249 410.4077)">
							<stop  offset="0" style="stop-color:#AD7C23"/>
							<stop  offset="0.9512" style="stop-color:#AD7C23"/>
						</linearGradient>
						
							<polyline style="fill:none;stroke:url(#SVGID_00000118367798519784230600000012421778314131972778_);stroke-width:3.0052;stroke-linecap:round;stroke-miterlimit:10;" points="
							388.74,629.41 351.08,594.05 305.87,594.73 						"/>
					</g>
					
						<linearGradient id="SVGID_00000088133452338465021280000015413841174216620975_" gradientUnits="userSpaceOnUse" x1="11684.7842" y1="-291.8379" x2="11699.6992" y2="-291.8379" gradientTransform="matrix(-1 0 0 -1 12254.249 410.4077)">
						<stop  offset="0" style="stop-color:#AD7C23"/>
						<stop  offset="0.9512" style="stop-color:#AD7C23"/>
					</linearGradient>
					
						<circle style="fill:none;stroke:url(#SVGID_00000088133452338465021280000015413841174216620975_);stroke-width:3.0052;stroke-linecap:round;stroke-miterlimit:10;" cx="562.01" cy="702.25" r="5.95"/>
					
						<linearGradient id="SVGID_00000093153483837122703320000001917578190207325082_" gradientUnits="userSpaceOnUse" x1="11281.0645" y1="-217.8397" x2="11295.9785" y2="-217.8397" gradientTransform="matrix(-1 0 0 -1 12254.249 410.4077)">
						<stop  offset="0" style="stop-color:#AD7C23"/>
						<stop  offset="0.9512" style="stop-color:#AD7C23"/>
					</linearGradient>
					
						<path style="fill:none;stroke:url(#SVGID_00000093153483837122703320000001917578190207325082_);stroke-width:3.0052;stroke-linecap:round;stroke-miterlimit:10;" d="
						M971.68,628.25c0,3.29-2.67,5.95-5.95,5.95c-3.29,0-5.95-2.67-5.95-5.95c0-3.29,2.67-5.95,5.95-5.95
						C969.02,622.29,971.68,624.96,971.68,628.25z"/>
					
						<linearGradient id="SVGID_00000013191137641953811520000005045096743985733776_" gradientUnits="userSpaceOnUse" x1="11490.7441" y1="-252.843" x2="11505.6582" y2="-252.843" gradientTransform="matrix(-1 0 0 -1 12254.249 410.4077)">
						<stop  offset="0" style="stop-color:#AD7C23"/>
						<stop  offset="0.9512" style="stop-color:#AD7C23"/>
					</linearGradient>
					
						<path style="fill:none;stroke:url(#SVGID_00000013191137641953811520000005045096743985733776_);stroke-width:3.0052;stroke-linecap:round;stroke-miterlimit:10;" d="
						M762,663.25c0,3.29-2.67,5.95-5.95,5.95c-3.29,0-5.95-2.67-5.95-5.95s2.67-5.95,5.95-5.95C759.34,657.3,762,659.96,762,663.25z
						"/>
					
						<linearGradient id="SVGID_00000116933710826809906930000003895501132931575695_" gradientUnits="userSpaceOnUse" x1="11281.0645" y1="-252.843" x2="11295.9785" y2="-252.843" gradientTransform="matrix(-1 0 0 -1 12254.249 410.4077)">
						<stop  offset="0" style="stop-color:#AD7C23"/>
						<stop  offset="0.9512" style="stop-color:#AD7C23"/>
					</linearGradient>
					
						<path style="fill:none;stroke:url(#SVGID_00000116933710826809906930000003895501132931575695_);stroke-width:3.0052;stroke-linecap:round;stroke-miterlimit:10;" d="
						M971.68,663.25c0,3.29-2.67,5.95-5.95,5.95c-3.29,0-5.95-2.67-5.95-5.95s2.67-5.95,5.95-5.95
						C969.02,657.3,971.68,659.96,971.68,663.25z"/>
					
						<linearGradient id="SVGID_00000112601500274608557570000005760576223662607543_" gradientUnits="userSpaceOnUse" x1="11281.0645" y1="-235.7934" x2="11295.9805" y2="-235.7934" gradientTransform="matrix(-1 0 0 -1 12254.249 410.4077)">
						<stop  offset="0" style="stop-color:#AD7C23"/>
						<stop  offset="0.9512" style="stop-color:#AD7C23"/>
					</linearGradient>
					
						<circle style="fill:none;stroke:url(#SVGID_00000112601500274608557570000005760576223662607543_);stroke-width:3.0052;stroke-linecap:round;stroke-miterlimit:10;" cx="965.73" cy="646.2" r="5.95"/>
				</g>
				
					<linearGradient id="SVGID_00000010998361533121165120000003829993279853646466_" gradientUnits="userSpaceOnUse" x1="11626.8105" y1="-248.4357" x2="11626.8105" y2="-248.4357" gradientTransform="matrix(-1 0 0 -1 12254.249 410.4077)">
					<stop  offset="0" style="stop-color:#AD7C23"/>
					<stop  offset="0.9512" style="stop-color:#AD7C23"/>
				</linearGradient>
				
					<path style="fill:none;stroke:url(#SVGID_00000010998361533121165120000003829993279853646466_);stroke-width:0.5;stroke-linecap:round;stroke-miterlimit:10;" d="
					M627.44,658.84"/>
				
					<linearGradient id="SVGID_00000162310929871820765240000009725948162614325685_" gradientUnits="userSpaceOnUse" x1="11652.0479" y1="-188.6966" x2="11652.0479" y2="-188.6966" gradientTransform="matrix(-1 0 0 -1 12254.249 410.4077)">
					<stop  offset="0" style="stop-color:#AD7C23"/>
					<stop  offset="0.9512" style="stop-color:#AD7C23"/>
				</linearGradient>
				
					<path style="fill:none;stroke:url(#SVGID_00000162310929871820765240000009725948162614325685_);stroke-width:0.5;stroke-linecap:round;stroke-miterlimit:10;" d="
					M602.2,599.1"/>
			</g>
			
				<linearGradient id="SVGID_00000066510412562720341830000012879562741310290840_" gradientUnits="userSpaceOnUse" x1="11684.0273" y1="-267.4792" x2="11698.9414" y2="-267.4792" gradientTransform="matrix(-1 0 0 -1 12254.249 410.4077)">
				<stop  offset="0" style="stop-color:#AD7C23"/>
				<stop  offset="0.9512" style="stop-color:#AD7C23"/>
			</linearGradient>
			
				<path style="fill:none;stroke:url(#SVGID_00000066510412562720341830000012879562741310290840_);stroke-width:3.0052;stroke-linecap:round;stroke-miterlimit:10;" d="
				M568.72,677.89c0,3.29-2.67,5.95-5.95,5.95c-3.29,0-5.95-2.67-5.95-5.95c0-3.29,2.67-5.95,5.95-5.95
				C566.05,671.93,568.72,674.6,568.72,677.89z"/>
			
				<linearGradient id="SVGID_00000010997439641668273590000010241089381206876603_" gradientUnits="userSpaceOnUse" x1="11906.2529" y1="-292.5227" x2="11921.167" y2="-292.5227" gradientTransform="matrix(-1 0 0 -1 12254.249 410.4077)">
				<stop  offset="0" style="stop-color:#AD7C23"/>
				<stop  offset="0.9512" style="stop-color:#AD7C23"/>
			</linearGradient>
			
				<path style="fill:none;stroke:url(#SVGID_00000010997439641668273590000010241089381206876603_);stroke-width:3.0052;stroke-linecap:round;stroke-miterlimit:10;" d="
				M346.49,702.93c0,3.29-2.67,5.95-5.95,5.95s-5.95-2.67-5.95-5.95c0-3.29,2.67-5.95,5.95-5.95S346.49,699.64,346.49,702.93z"/>
			
				<linearGradient id="SVGID_00000176027154879039850890000004836849916533857924_" gradientUnits="userSpaceOnUse" x1="12132.1006" y1="-267.3488" x2="12147.0146" y2="-267.3488" gradientTransform="matrix(-1 0 0 -1 12254.249 410.4077)">
				<stop  offset="0" style="stop-color:#AD7C23"/>
				<stop  offset="0.9512" style="stop-color:#AD7C23"/>
			</linearGradient>
			
				<path style="fill:none;stroke:url(#SVGID_00000176027154879039850890000004836849916533857924_);stroke-width:3.0052;stroke-linecap:round;stroke-miterlimit:10;" d="
				M120.65,677.76c0,3.29-2.67,5.95-5.95,5.95c-3.29,0-5.95-2.67-5.95-5.95c0-3.29,2.67-5.95,5.95-5.95
				C117.98,671.8,120.65,674.47,120.65,677.76z"/>
			
				<linearGradient id="SVGID_00000122683611995440048380000000133542443315815350_" gradientUnits="userSpaceOnUse" x1="11947.1982" y1="-184.5227" x2="11962.1123" y2="-184.5227" gradientTransform="matrix(-1 0 0 -1 12254.249 410.4077)">
				<stop  offset="0" style="stop-color:#AD7C23"/>
				<stop  offset="0.9512" style="stop-color:#AD7C23"/>
			</linearGradient>
			
				<path style="fill:none;stroke:url(#SVGID_00000122683611995440048380000000133542443315815350_);stroke-width:3.0052;stroke-linecap:round;stroke-miterlimit:10;" d="
				M305.55,594.93c0,3.29-2.67,5.95-5.95,5.95s-5.95-2.67-5.95-5.95c0-3.29,2.67-5.95,5.95-5.95S305.55,591.64,305.55,594.93z"/>
		</g>
		<g>
			<g>
				<g>
					
						<linearGradient id="SVGID_00000163058013666718903300000006841505783485970054_" gradientUnits="userSpaceOnUse" x1="184.0403" y1="378.0517" x2="689.7108" y2="378.0517">
						<stop  offset="0" style="stop-color:#60A700"/>
						<stop  offset="1" style="stop-color:#60A700"/>
					</linearGradient>
					
						<polyline style="fill:none;stroke:url(#SVGID_00000163058013666718903300000006841505783485970054_);stroke-width:13.5235;stroke-linecap:round;stroke-miterlimit:10;" points="
						190.8,418.25 475.25,418.25 558.09,337.85 682.95,337.85 					"/>
					<g>
						
							<linearGradient id="SVGID_00000057862620282342353910000010408817822840121251_" gradientUnits="userSpaceOnUse" x1="551.0627" y1="343.1802" x2="737.1812" y2="343.1802">
							<stop  offset="0" style="stop-color:#AD7C23"/>
							<stop  offset="0.9512" style="stop-color:#AD7C23"/>
						</linearGradient>
						
							<polyline style="fill:none;stroke:url(#SVGID_00000057862620282342353910000010408817822840121251_);stroke-width:3.0052;stroke-linecap:round;stroke-miterlimit:10;" points="
							552.57,360.46 696.76,360.22 735.68,325.9 						"/>
					</g>
					
						<linearGradient id="SVGID_00000023268967657046900920000016586899229105564299_" gradientUnits="userSpaceOnUse" x1="120.5141" y1="373.842" x2="513.96" y2="373.842">
						<stop  offset="0" style="stop-color:#AD7C23"/>
						<stop  offset="0.9512" style="stop-color:#AD7C23"/>
					</linearGradient>
					
						<polyline style="fill:none;stroke:url(#SVGID_00000023268967657046900920000016586899229105564299_);stroke-width:3.0052;stroke-linecap:round;stroke-miterlimit:10;" points="
						512.46,351.32 466.2,396.37 122.02,396.37 					"/>
					
						<linearGradient id="SVGID_00000033359075290766915520000018369349192258900637_" gradientUnits="userSpaceOnUse" x1="119.1249" y1="353.2685" x2="515.6" y2="353.2685">
						<stop  offset="0" style="stop-color:#AD7C23"/>
						<stop  offset="0.9512" style="stop-color:#AD7C23"/>
					</linearGradient>
					
						<polyline style="fill:none;stroke:url(#SVGID_00000033359075290766915520000018369349192258900637_);stroke-width:3.0052;stroke-linecap:round;stroke-miterlimit:10;" points="
						514.1,327.65 458.47,378.76 120.63,378.89 					"/>
					
						<linearGradient id="SVGID_00000114787868984776686600000006712543710926003868_" gradientUnits="userSpaceOnUse" x1="119.1439" y1="361.3627" x2="319.9193" y2="361.3627">
						<stop  offset="0" style="stop-color:#AD7C23"/>
						<stop  offset="0.9512" style="stop-color:#AD7C23"/>
					</linearGradient>
					
						<line style="fill:none;stroke:url(#SVGID_00000114787868984776686600000006712543710926003868_);stroke-width:3.0052;stroke-linecap:round;stroke-miterlimit:10;" x1="120.65" y1="361.36" x2="318.42" y2="361.36"/>
					<g>
						
							<linearGradient id="SVGID_00000025429888839547644310000002636400507868942767_" gradientUnits="userSpaceOnUse" x1="551.0635" y1="382.2291" x2="962.811" y2="382.2291">
							<stop  offset="0" style="stop-color:#AD7C23"/>
							<stop  offset="0.9512" style="stop-color:#AD7C23"/>
						</linearGradient>
						
							<polyline style="fill:none;stroke:url(#SVGID_00000025429888839547644310000002636400507868942767_);stroke-width:3.0052;stroke-linecap:round;stroke-miterlimit:10;" points="
							961.31,351.32 934.62,377.9 805.36,377.9 761.86,413.14 735.58,413.14 697.27,378.02 552.57,377.77 						"/>
					</g>
					<g>
						
							<linearGradient id="SVGID_00000052063670814080645700000003015624345540912795_" gradientUnits="userSpaceOnUse" x1="551.0635" y1="395.0597" x2="693.1775" y2="395.0597">
							<stop  offset="0" style="stop-color:#AD7C23"/>
							<stop  offset="0.9512" style="stop-color:#AD7C23"/>
						</linearGradient>
						
							<line style="fill:none;stroke:url(#SVGID_00000052063670814080645700000003015624345540912795_);stroke-width:3.0052;stroke-linecap:round;stroke-miterlimit:10;" x1="552.57" y1="394.91" x2="691.67" y2="395.21"/>
						
							<linearGradient id="SVGID_00000093858464887262390880000009044233025285403818_" gradientUnits="userSpaceOnUse" x1="690.1723" y1="412.889" x2="776.0543" y2="412.889">
							<stop  offset="0" style="stop-color:#AD7C23"/>
							<stop  offset="0.9512" style="stop-color:#AD7C23"/>
						</linearGradient>
						
							<polyline style="fill:none;stroke:url(#SVGID_00000093858464887262390880000009044233025285403818_);stroke-width:3.0052;stroke-linecap:round;stroke-miterlimit:10;" points="
							691.67,395.21 729.34,430.56 774.55,429.88 						"/>
					</g>
					
						<linearGradient id="SVGID_00000077284345875289406720000012958733111945904540_" gradientUnits="userSpaceOnUse" x1="510.9548" y1="322.3678" x2="525.8691" y2="322.3678">
						<stop  offset="0" style="stop-color:#AD7C23"/>
						<stop  offset="0.9512" style="stop-color:#AD7C23"/>
					</linearGradient>
					
						<circle style="fill:none;stroke:url(#SVGID_00000077284345875289406720000012958733111945904540_);stroke-width:3.0052;stroke-linecap:round;stroke-miterlimit:10;" cx="518.41" cy="322.37" r="5.95"/>
					
						<linearGradient id="SVGID_00000062909510415338975490000013627960133915212195_" gradientUnits="userSpaceOnUse" x1="107.2348" y1="396.366" x2="122.1491" y2="396.366">
						<stop  offset="0" style="stop-color:#AD7C23"/>
						<stop  offset="0.9512" style="stop-color:#AD7C23"/>
					</linearGradient>
					
						<circle style="fill:none;stroke:url(#SVGID_00000062909510415338975490000013627960133915212195_);stroke-width:3.0052;stroke-linecap:round;stroke-miterlimit:10;" cx="114.69" cy="396.37" r="5.95"/>
					
						<linearGradient id="SVGID_00000057834591092822604470000008566219279839527305_" gradientUnits="userSpaceOnUse" x1="316.9141" y1="361.3627" x2="331.8284" y2="361.3627">
						<stop  offset="0" style="stop-color:#AD7C23"/>
						<stop  offset="0.9512" style="stop-color:#AD7C23"/>
					</linearGradient>
					
						<circle style="fill:none;stroke:url(#SVGID_00000057834591092822604470000008566219279839527305_);stroke-width:3.0052;stroke-linecap:round;stroke-miterlimit:10;" cx="324.37" cy="361.36" r="5.95"/>
					
						<linearGradient id="SVGID_00000077306945545195574490000003139646780521402811_" gradientUnits="userSpaceOnUse" x1="107.2348" y1="361.3627" x2="122.1491" y2="361.3627">
						<stop  offset="0" style="stop-color:#AD7C23"/>
						<stop  offset="0.9512" style="stop-color:#AD7C23"/>
					</linearGradient>
					
						<circle style="fill:none;stroke:url(#SVGID_00000077306945545195574490000003139646780521402811_);stroke-width:3.0052;stroke-linecap:round;stroke-miterlimit:10;" cx="114.69" cy="361.36" r="5.95"/>
					
						<linearGradient id="SVGID_00000147194979087769563980000015023114287599984012_" gradientUnits="userSpaceOnUse" x1="107.2348" y1="378.4123" x2="122.1504" y2="378.4123">
						<stop  offset="0" style="stop-color:#AD7C23"/>
						<stop  offset="0.9512" style="stop-color:#AD7C23"/>
					</linearGradient>
					
						<circle style="fill:none;stroke:url(#SVGID_00000147194979087769563980000015023114287599984012_);stroke-width:3.0052;stroke-linecap:round;stroke-miterlimit:10;" cx="114.69" cy="378.41" r="5.95"/>
				</g>
				
					<linearGradient id="SVGID_00000052795267689829391830000006397139023308691093_" gradientUnits="userSpaceOnUse" x1="452.9808" y1="365.77" x2="452.9808" y2="365.77">
					<stop  offset="0" style="stop-color:#AD7C23"/>
					<stop  offset="0.9512" style="stop-color:#AD7C23"/>
				</linearGradient>
				
					<path style="fill:none;stroke:url(#SVGID_00000052795267689829391830000006397139023308691093_);stroke-width:0.5;stroke-linecap:round;stroke-miterlimit:10;" d="
					M452.98,365.77"/>
				
					<linearGradient id="SVGID_00000008869643037799229320000003924292166533404289_" gradientUnits="userSpaceOnUse" x1="478.2183" y1="425.5091" x2="478.2183" y2="425.5091">
					<stop  offset="0" style="stop-color:#AD7C23"/>
					<stop  offset="0.9512" style="stop-color:#AD7C23"/>
				</linearGradient>
				
					<path style="fill:none;stroke:url(#SVGID_00000008869643037799229320000003924292166533404289_);stroke-width:0.5;stroke-linecap:round;stroke-miterlimit:10;" d="
					M478.22,425.51"/>
			</g>
			
				<linearGradient id="SVGID_00000048478130356335428730000002080313136192311428_" gradientUnits="userSpaceOnUse" x1="510.1979" y1="346.7265" x2="525.1122" y2="346.7265">
				<stop  offset="0" style="stop-color:#AD7C23"/>
				<stop  offset="0.9512" style="stop-color:#AD7C23"/>
			</linearGradient>
			
				<circle style="fill:none;stroke:url(#SVGID_00000048478130356335428730000002080313136192311428_);stroke-width:3.0052;stroke-linecap:round;stroke-miterlimit:10;" cx="517.66" cy="346.73" r="5.95"/>
			
				<linearGradient id="SVGID_00000049927049017416248560000015539321252672223629_" gradientUnits="userSpaceOnUse" x1="732.4228" y1="321.683" x2="747.3371" y2="321.683">
				<stop  offset="0" style="stop-color:#AD7C23"/>
				<stop  offset="0.9512" style="stop-color:#AD7C23"/>
			</linearGradient>
			
				<circle style="fill:none;stroke:url(#SVGID_00000049927049017416248560000015539321252672223629_);stroke-width:3.0052;stroke-linecap:round;stroke-miterlimit:10;" cx="739.88" cy="321.68" r="5.95"/>
			
				<linearGradient id="SVGID_00000178193547271710376930000011868611047386300568_" gradientUnits="userSpaceOnUse" x1="958.2706" y1="346.8569" x2="973.1849" y2="346.8569">
				<stop  offset="0" style="stop-color:#AD7C23"/>
				<stop  offset="0.9512" style="stop-color:#AD7C23"/>
			</linearGradient>
			
				<circle style="fill:none;stroke:url(#SVGID_00000178193547271710376930000011868611047386300568_);stroke-width:3.0052;stroke-linecap:round;stroke-miterlimit:10;" cx="965.73" cy="346.86" r="5.95"/>
			
				<linearGradient id="SVGID_00000075141567456966551400000008274572010426010509_" gradientUnits="userSpaceOnUse" x1="773.3685" y1="429.683" x2="788.2828" y2="429.683">
				<stop  offset="0" style="stop-color:#AD7C23"/>
				<stop  offset="0.9512" style="stop-color:#AD7C23"/>
			</linearGradient>
			
				<circle style="fill:none;stroke:url(#SVGID_00000075141567456966551400000008274572010426010509_);stroke-width:3.0052;stroke-linecap:round;stroke-miterlimit:10;" cx="780.83" cy="429.68" r="5.95"/>
		</g>
	</g>
</g>
</svg>
